<?xml version="1.0" encoding="UTF-8" standalone="no"?><svg xmlns:android="http://schemas.android.com/apk/res/android" height="57.372093" width="644" xmlns="http://www.w3.org/2000/svg">
  <path d="M466.75,1C471.14,1 474.69,4.56 474.69,8.94C474.69,18.03 474.69,37.35 474.69,46.43C474.69,50.82 471.14,54.37 466.75,54.37C406.86,54.37 235.14,54.37 175.25,54.37C170.86,54.37 167.31,50.82 167.31,46.43C167.31,37.35 167.31,18.03 167.31,8.94C167.31,4.56 170.86,1 175.25,1C235.14,1 406.86,1 466.75,1Z" fill=""/>
  <path d="M1,54.37L641,54.37L641,52.09L1,52.09L1,54.37Z" fill=""/>
</svg>