<?xml version="1.0" encoding="UTF-8" standalone="no"?><svg xmlns:android="http://schemas.android.com/apk/res/android" height="22" width="22" xmlns="http://www.w3.org/2000/svg">
  <path d="M16.211,19.939L2.316,19.939L2.316,5.79h8.105L10.421,3.474L2.316,3.474A2.323,2.323 0,0 0,0 5.79L0,19.685a2.323,2.323 0,0 0,2.316 2.316L16.211,22.001a2.323,2.323 0,0 0,2.316 -2.316L18.527,11.579L16.211,11.579Z" fill="#fff"/>
  <path d="M18.526,0L16.211,0L16.211,3.474L12.737,3.474c0.012,0.012 0,2.316 0,2.316h3.474v3.462c0.012,0.012 2.316,0 2.316,0L18.527,5.789h3.474L22.001,3.474L18.526,3.474Z" fill="#fff"/>
  <path d="M5,8h9v2h-9z" fill="#fff"/>
  <path d="M4.632,11.579v2.316h9.263L13.895,11.579L4.632,11.579Z" fill="#fff"/>
  <path d="M5,15h9v2h-9z" fill="#fff"/>
</svg>