<?xml version="1.0" encoding="UTF-8" standalone="no"?><!--
  ~ Copyright (C) 2021, Ibnsina Pharma
  ~ All rights reserved.
  --><svg xmlns:android="http://schemas.android.com/apk/res/android" height="351.413" width="346.528" xmlns="http://www.w3.org/2000/svg">
    <path d="M143.251,17.688C116.392,69.471 -12.624,52.503 1.005,121.618c13.7,69.114 36.881,59.9 26.458,103.2s-23.117,57.851 31.4,101.441 98.75,22.014 134.562,-1.024S287.705,350.388 322.711,296.781c34.943,-53.609 -38.084,-55.218 10.891,-158.707S170.11,-34.164 143.251,17.688Z" fill="#EAECF7"/>
    <path d="M249.1,51.503A3.288,3.288 0,0 1,252.175 47.426L289,47.426a3.288,3.288 0,0 1,3.157 4.077L289,63.683a3.236,3.236 0,0 1,-3.157 2.446L255.358,66.129A3.236,3.236 0,0 1,252.2 63.683ZM304.605,51.924L293.739,51.924v0.368l-1.6,6.313L305.1,58.605a2.42,2.42 0,0 1,2.42 2.42v94.149a2.42,2.42 0,0 1,-2.42 2.42L236.155,157.594a2.42,2.42 0,0 1,-2.42 -2.42L233.735,61.026a2.42,2.42 0,0 1,2.42 -2.42L249.124,58.606l-1.6,-6.313v-0.368L236.576,51.925A8.1,8.1 0,0 0,228.5 60v96.2a8.1,8.1 0,0 0,8.076 8.076L304.6,164.276a8.1,8.1 0,0 0,8.076 -8.076v-96.2A8.1,8.1 0,0 0,304.6 51.924ZM260.067,72.546 L250.65,81.966l-2.867,-3.341 -1.868,1.6 4.6,5.261L261.777,74.205ZM245.914,77.204L254.1,77.204L256.253,75.046a3.551,3.551 0,0 0,-1.447 -0.21L245.914,74.836a4,4 0,0 0,-3.972 3.972v8.865a3.972,3.972 0,0 0,3.972 3.946h8.891a3.972,3.972 0,0 0,3.972 -3.946L258.777,78.73L256.332,81.176v6.5a1.526,1.526 0,0 1,-1.526 1.5L245.914,89.176a1.526,1.526 0,0 1,-1.526 -1.5v-8.97a1.5,1.5 0,0 1,1.526 -1.5ZM299.236,77.73L266.2,77.73v2.368h33.04ZM266.2,83.886v2.446h25.1L291.3,83.886ZM241.942,116.426a3.972,3.972 0,0 0,3.972 3.946h8.891a3.972,3.972 0,0 0,3.972 -3.946L258.777,107.482l-2.446,2.473L256.331,116.426a1.5,1.5 0,0 1,-1.526 1.5L245.914,117.926a1.5,1.5 0,0 1,-1.526 -1.5L244.388,107.561a1.526,1.526 0,0 1,1.526 -1.5L254.1,106.061l2.157,-2.157a4,4 0,0 0,-1.5 -0.289L245.914,103.615a3.972,3.972 0,0 0,-3.972 3.946ZM260.067,101.432 L250.65,110.823l-2.867,-3.341 -1.868,1.6 4.6,5.261L261.777,103.089ZM299.267,106.693L266.2,106.693v2.341h33.04ZM266.2,112.746L266.2,115.216h25.1L291.3,112.746ZM260.067,130.289 L250.65,139.707 247.782,136.366 245.914,137.946l4.6,5.261L261.777,131.92ZM241.967,145.283a4,4 0,0 0,3.972 3.972h8.865a4,4 0,0 0,3.972 -3.972L258.776,136.366l-2.446,2.446v6.471a1.526,1.526 0,0 1,-1.526 1.526L245.914,146.809a1.526,1.526 0,0 1,-1.526 -1.526L244.388,136.446a1.526,1.526 0,0 1,1.526 -1.526L254.1,134.92l2.157,-2.157a4,4 0,0 0,-1.5 -0.289L245.914,132.474A4,4 0,0 0,241.942 136.446ZM299.261,135.471L266.2,135.471v2.5h33.04ZM266.195,144.071h25.1v-2.446L266.2,141.625Z" fill="#4d5fab"/>
    <path d="M54.451,110.303a9.283,9.283 0,0 0,3.589 1.021v2.042a0.681,0.681 0,0 0,0.217 0.526,0.774 0.774,0 0,0 0.495,0.186h1.795a0.65,0.65 0,0 0,0.712 -0.588v-2.166a8.632,8.632 0,0 0,4.92 -1.888,5.137 5.137,0 0,0 1.826,-4.115 4.892,4.892 0,0 0,-0.712 -2.847,5.51 5.51,0 0,0 -2.259,-1.857 23.9,23.9 0,0 0,-4.147 -1.3c-0.959,-0.248 -1.918,-0.526 -2.878,-0.866a3.528,3.528 0,0 1,-1.454 -0.959,1.98 1.98,0 0,1 -0.464,-1.3 2.1,2.1 0,0 1,0.928 -1.795,4.8 4.8,0 0,1 2.506,-0.619 4.208,4.208 0,0 1,2.444 0.65,2.475 2.475,0 0,1 1.176,1.547 0.8,0.8 0,0 0,0.835 0.526h3.094a0.619,0.619 0,0 0,0.186 -0.464,4.705 4.705,0 0,0 -0.774,-2.2 6.439,6.439 0,0 0,-2.073 -2.011,8.138 8.138,0 0,0 -3.28,-1.145v-2.073a0.588,0.588 0,0 0,-0.186 -0.5,0.773 0.773,0 0,0 -0.526,-0.186h-1.795a0.774,0.774 0,0 0,-0.5 0.186,0.619 0.619,0 0,0 -0.216,0.5v2.011a7.7,7.7 0,0 0,-4.518 1.919,5.228 5.228,0 0,0 -1.64,3.868 4.672,4.672 0,0 0,1.609 3.837,11.669 11.669,0 0,0 5.044,2.166c1.052,0.278 2.073,0.588 3.094,0.959a3.9,3.9 0,0 1,1.578 0.928,1.609 1.609,0 0,1 0.526,1.3A2.134,2.134 0,0 1,62.589 107.491a6.962,6.962 0,0 1,-5.941 0,3.589 3.589,0 0,1 -1.362,-1.671 1.644,1.644 0,0 0,-0.371 -0.433,0.774 0.774,0 0,0 -0.526,0h-2.63a0.68,0.68 0,0 0,-0.464 0.186,0.617 0.617,0 0,0 -0.185,0.433 4.855,4.855 0,0 0,0.835 2.506A6.19,6.19 0,0 0,54.451 110.303Z" fill="#4e5fab"/>
    <path d="M74.564,101.856h8.54v12.254h-8.54z" fill="#4e5fab"/>
    <path d="M87.436,95.481h8.54v18.628h-8.54z" fill="#4e5fab"/>
    <path d="M100.34,85.27h8.54v28.839h-8.54z" fill="#4e5fab"/>
    <path d="M51.325,133.94h57.555a1.547,1.547 0,0 0,0 -3.094L51.325,130.846a1.547,1.547 0,0 0,0 3.094Z" fill="#4e5fab"/>
    <path d="M51.325,147.404h57.555a1.547,1.547 0,0 0,0 -3.094L51.325,144.31a1.547,1.547 0,1 0,0 3.094Z" fill="#4e5fab"/>
    <path d="M51.325,160.834h28.189a1.547,1.547 0,0 0,0 -3.094L51.325,157.74a1.547,1.547 0,0 0,0 3.094Z" fill="#4e5fab"/>
    <path d="M136.76,70.262l-72.315,-14.3a2.785,2.785 0,0 0,-3.28 2.2h0l-2.29,11.542L42.785,69.704a2.816,2.816 0,0 0,-2.785 2.816L40,177.729a2.785,2.785 0,0 0,2.785 2.816h73.738a2.785,2.785 0,0 0,2.785 -2.785h0v-4.7l19.618,-99.452a2.754,2.754 0,0 0,-2.042 -3.311ZM116.275,177.42L43.002,177.42L43.002,72.769h73.336ZM119.369,157.307L119.369,72.52a2.785,2.785 0,0 0,-2.754 -2.816L61.97,69.704l2.135,-10.706 71.727,14.2Z" fill="#4e5fab"/>
    <path d="M132.21,312.386L64.925,318.263a1.379,1.379 130.008,0 1,-1.493 -1.254l-0.768,-8.792a1.379,1.379 130.008,0 1,2.747 -0.24l0.648,7.418l64.541,-5.638L122.612,218.31l-7.418,0.648a1.379,1.379 130.008,0 1,-0.24 -2.747l8.792,-0.768a1.379,1.379 130.008,0 1,1.493 1.254l8.228,94.196A1.379,1.379 130.008,0 1,132.21 312.386Z" fill="#4e5fab"/>
    <path d="M103.632,233.185L75.581,235.636a1.379,1.379 130.008,1 1,-0.24 -2.747l28.051,-2.45a1.379,1.379 130.008,1 1,0.24 2.747Z" fill="#4e5fab"/>
    <path d="M105.393,253.334L63.515,256.992a1.379,1.379 130.008,0 1,-0.24 -2.747l41.878,-3.658a1.379,1.379 130.008,1 1,0.24 2.747Z" fill="#4e5fab"/>
    <path d="M104.513,243.26L62.635,246.918a1.38,1.38 130.008,0 1,-0.24 -2.748l41.878,-3.658a1.38,1.38 130.008,0 1,0.24 2.748Z" fill="#4e5fab"/>
    <path d="M107.153,273.484L65.276,277.142a1.379,1.379 130.008,1 1,-0.24 -2.747l41.878,-3.658a1.379,1.379 130.008,0 1,0.24 2.747Z" fill="#4e5fab"/>
    <path d="M106.273,263.409L64.395,267.067a1.379,1.379 130.008,0 1,-0.24 -2.748l41.878,-3.658a1.379,1.379 130.008,0 1,0.24 2.748Z" fill="#4e5fab"/>
    <path d="M108.034,283.56L66.156,287.218a1.379,1.379 130.008,1 1,-0.24 -2.747l41.878,-3.658a1.379,1.379 130.008,0 1,0.24 2.747Z" fill="#4e5fab"/>
    <path d="M71.793,236.733L49.119,238.714a1.379,1.379 130.008,0 1,-0.24 -2.747l21.301,-1.861L68.32,212.806a1.379,1.379 130.008,0 1,2.747 -0.24l1.981,22.674A1.379,1.379 130.008,0 1,71.793 236.733Z" fill="#4e5fab"/>
    <path d="M122.651,304.362L55.367,310.24a1.379,1.379 130.008,0 1,-1.493 -1.254L47.626,237.461a1.376,1.376 130.008,0 1,0.343 -1.034l7.999,-9.53L68.636,211.796a1.375,1.375 129.988,0 1,0.934 -0.483l44.61,-3.897a1.379,1.379 130.008,0 1,1.493 1.254l8.228,94.196a1.379,1.379 130.008,0 1,-1.252 1.497ZM56.499,307.369l64.541,-5.638L113.052,210.282L70.381,214.01L58.077,228.669l-7.656,9.121Z" fill="#4e5fab"/>
    <path d="M64.806,316.89" fill="#4e5fab"/>
    <path d="M64.038,308.097" fill="#4e5fab"/>
    <path android:strokeLineCap="round" android:strokeLineJoin="round" d="M346.529,264.179" fill="#000000" fill-opacity="0.0" stroke="#414042" stroke-width="1"/>
    <path android:strokeLineCap="round" android:strokeLineJoin="round" d="M212.543,305.025L296.999,300.599L304.497,242.01L195.055,247.746Z" fill="#000000" fill-opacity="0.0" stroke="#4e5fab" stroke-width="4"/>
    <path android:strokeLineCap="round" android:strokeLineJoin="round" d="M222.225,226.408a5.277,5.277 132,1 1,-7.269 -1.522,5.277 5.277,132 0,1 7.269,1.522Z" fill="#000000" fill-opacity="0.0" stroke="#4e5fab" stroke-width="4"/>
    <path android:strokeLineCap="round" android:strokeLineJoin="round" d="M239.88,213.453a5.274,5.274 132,1 1,-7.308 -1.594A5.313,5.313 132,0 1,239.88 213.453Z" fill="#000000" fill-opacity="0.0" stroke="#4e5fab" stroke-width="4"/>
    <path android:strokeLineCap="round" android:strokeLineJoin="round" d="M251.454,232.641A5.283,5.283 132,1 1,244.146 231.083,5.283 5.283,132 0,1 251.454,232.641Z" fill="#000000" fill-opacity="0.0" stroke="#4e5fab" stroke-width="4"/>
    <path android:strokeLineCap="round" android:strokeLineJoin="round" d="M210.288,246.912 L198.57,229.086a5.384,5.384 132,0 1,1.596 -7.272L235.59,198.821a5.313,5.313 132,0 1,7.271 1.56L262.41,230.413" fill="#000000" fill-opacity="0.0" stroke="#4e5fab" stroke-width="4"/>
    <path android:strokeLineCap="round" android:strokeLineJoin="round" d="M301.111,214.438 L276.054,206.151a5.313,5.313 132,0 1,-3.372 -6.725l0,0a5.313,5.313 132,0 1,6.691 -3.334l25.057,8.284a5.313,5.313 132,0 1,3.37 6.689l0,0A5.313,5.313 132,0 1,301.111 214.438Z" fill="#000000" fill-opacity="0.0" stroke="#4e5fab" stroke-width="4"/>
    <path android:strokeLineCap="round" android:strokeLineJoin="round" d="M297.469,242.344l3.847,-11.632a5.456,5.456 132,0 0,-0.212 -4.05l-1.365,-2.732a5.456,5.456 132,0 1,-0.212 -4.05L301.362,214.421 276.269,206.143l-1.837,5.417a5.169,5.169 132,0 1,-2.64 3.121l-2.734,1.33A5.349,5.349 132,0 0,266.449 219.054L257.786,244.423" fill="#000000" fill-opacity="0.0" stroke="#4e5fab" stroke-width="4"/>
    <path android:strokeLineCap="round" android:strokeLineJoin="round" d="M281.957,230.323L278.636,240.347" fill="#000000" fill-opacity="0.0" stroke="#4e5fab" stroke-width="4"/>
    <path android:strokeLineCap="round" android:strokeLineJoin="round" d="M275.268,233.693L285.292,237.014" fill="#000000" fill-opacity="0.0" stroke="#4e5fab" stroke-width="4"/>
    <path android:strokeLineCap="round" android:strokeLineJoin="round" d="M301.486,228.472L267.393,217.175" fill="#000000" fill-opacity="0.0" stroke="#4e5fab" stroke-width="4"/>
    <path android:strokeLineCap="round" android:strokeLineJoin="round" d="M268.821,267.677L258.279,268.229L257.726,257.69L247.187,258.242L247.739,268.782L237.165,269.336L237.717,279.874L248.291,279.32L248.846,289.896L259.385,289.343L258.831,278.768L269.373,278.215Z" fill="#000000" fill-opacity="0.0" stroke="#4e5fab" stroke-width="4"/>
    <path android:strokeLineCap="round" android:strokeLineJoin="round" d="M253.285,273.774m-23.73,1.244a23.763,23.763 132,1 1,47.461 -2.487a23.763,23.763 132,1 1,-47.461 2.487" fill="#000000" fill-opacity="0.0" stroke="#4e5fab" stroke-width="4"/>
</svg>