<?xml version="1.0" encoding="UTF-8" standalone="no"?><!--
  ~ Copyright (C) 2021, Ibnsina Pharma
  ~ All rights reserved.
  --><svg xmlns:android="http://schemas.android.com/apk/res/android" height="351.413" width="340.902" xmlns="http://www.w3.org/2000/svg">
    <path d="M143.251,17.688C116.392,69.471 -12.624,52.503 1.005,121.618c13.7,69.114 36.881,59.9 26.458,103.2s-23.117,57.851 31.4,101.441 98.75,22.014 134.562,-1.024S287.705,350.388 322.711,296.781c34.943,-53.609 -38.084,-55.218 10.891,-158.707S170.11,-34.164 143.251,17.688Z" fill="#EAECF7"/>
    <path d="M242.01,97.404L242.01,97.404A2.17,2.17 0,0 1,244.18 99.574L244.18,131A2.17,2.17 0,0 1,242.01 133.17L242.01,133.17A2.17,2.17 0,0 1,239.84 131L239.84,99.574A2.17,2.17 0,0 1,242.01 97.404z" fill="#3f3d56"/>
    <path d="M112,30.47L227.182,30.47A15,15 0,0 1,242.182 45.47L242.182,312.53A15,15 0,0 1,227.182 327.53L112,327.53A15,15 0,0 1,97 312.53L97,45.47A15,15 0,0 1,112 30.47z" fill="#3f3d56"/>
    <path d="M222.19,43.397L205.849,43.397v1.966a9.315,9.315 0,0 1,-9.32 9.315L144.558,54.678a9.315,9.315 0,0 1,-9.32 -9.315L135.238,43.397h-15.3a11.314,11.314 0,0 0,-11.314 11.314v251.84a11.314,11.314 0,0 0,11.314 11.314L222.19,317.865A11.314,11.314 0,0 0,233.509 306.551L233.509,54.731A11.314,11.314 0,0 0,222.19 43.397Z" fill="#fff"/>
    <path d="M157.644,39.282L173.803,39.282A2.057,2.057 0,0 1,175.86 41.339L175.86,41.34A2.057,2.057 0,0 1,173.803 43.397L157.644,43.397A2.057,2.057 0,0 1,155.587 41.34L155.587,41.339A2.057,2.057 0,0 1,157.644 39.282z" fill="#e6e8ec"/>
    <path d="M181.264,41.34m-2.337,0a2.337,2.337 0,1 1,4.674 0a2.337,2.337 0,1 1,-4.674 0" fill="#e6e8ec"/>
    <path d="M170.477,181.622m-27.464,0a27.464,27.464 0,1 1,54.928 0a27.464,27.464 0,1 1,-54.928 0" fill="#fff"/>
    <path d="M206.601,177.788a36.707,36.707 0,1 1,-36.707 -36.708A36.707,36.707 0,0 1,206.601 177.788ZM165.652,197.218L192.877,169.989a2.366,2.366 0,0 0,0 -3.35l-3.35,-3.326a2.361,2.361 0,0 0,-3.346 0L163.977,185.521l-10.369,-10.394a2.376,2.376 0,0 0,-3.35 0l-3.35,3.37a2.376,2.376 0,0 0,0 3.35l15.4,15.39a2.366,2.366 0,0 0,3.35 0Z" fill="#4d5fab"/>
</svg>