<?xml version="1.0" encoding="UTF-8" standalone="no"?><!--
  ~ Copyright (C) 2021, Ibnsina Pharma
  ~ All rights reserved.
  --><svg xmlns:aapt="http://schemas.android.com/aapt" xmlns:android="http://schemas.android.com/apk/res/android" height="208.08" width="375.231" xmlns="http://www.w3.org/2000/svg">
    <path d="M0,157.84a187.616,50.241 0,1 0,375.232 0a187.616,50.241 0,1 0,-375.232 0z" fill="#ebecf8"/>
    <path d="M330.998,130.58L305.079,130.58a8.642,8.642 0,0 0,0.9 -3.861L305.979,8.679a8.679,8.679 0,0 0,-8.679 -8.679L96.64,-0a8.679,8.679 0,0 0,-8.683 8.679L87.957,126.72a8.643,8.643 0,0 0,0.9 3.861L62.026,130.581a2.3,2.3 0,0 0,-2.3 2.3v1.852a12.839,12.839 0,0 0,12.839 12.826L320.455,147.559A12.839,12.839 0,0 0,333.29 134.72v-1.852a2.3,2.3 0,0 0,-2.3 -2.288ZM171.266,137.92l-2.211,-2.522h55.163l-2.461,2.526Z" fill="#535461"/>
    <path d="M97.422,1.671L298.505,1.671A7,7 0,0 1,305.505 8.671L305.505,122.006A7,7 0,0 1,298.505 129.006L97.422,129.006A7,7 0,0 1,90.422 122.006L90.422,8.671A7,7 0,0 1,97.422 1.671z" fill="#535461"/>
    <path d="M94.905,20.961h203.662v108.111h-203.662z" fill="#fff"/>
    <path d="M196.737,11.539m-1.795,0a1.795,1.795 0,1 1,3.59 0a1.795,1.795 0,1 1,-3.59 0" fill="#fff"/>
    <path d="M158.327,24.762L72.415,24.762a7.872,7.872 0,0 0,-7.88 7.86L64.535,151.647a7.872,7.872 0,0 0,7.88 7.86h85.912a7.872,7.872 0,0 0,7.88 -7.86L166.207,32.622a7.872,7.872 0,0 0,-7.88 -7.86Z">
        <aapt:attr name="android:fillColor" xmlns:aapt="http://www.w3.org/2000/svg">
            <gradient android:endX="115.371" android:endY="24.759876" android:startX="115.371" android:startY="159.50912" android:type="linear">
                <item android:color="#40808080" android:offset="0"/>
                <item android:color="#1F808080" android:offset="0.54"/>
                <item android:color="#1A808080" android:offset="1"/>
            </gradient>
        </aapt:attr>
    </path>
    <path d="M85.742,26.376L144.997,26.376A20,20 0,0 1,164.997 46.376L164.997,138.312A20,20 0,0 1,144.997 158.312L85.742,158.312A20,20 0,0 1,65.742 138.312L65.742,46.376A20,20 0,0 1,85.742 26.376z" fill="#535461"/>
    <path d="M70.785,38.855h89.168v106.977h-89.168z" fill="#fff"/>
    <path d="M114.965,32.427m-1.21,0a1.21,1.21 0,1 1,2.42 0a1.21,1.21 0,1 1,-2.42 0" fill="#fff"/>
    <path d="M114.965,151.856m-3.631,0a3.631,3.631 0,1 1,7.262 0a3.631,3.631 0,1 1,-7.262 0" fill="#fff"/>
    <path d="M92.843,65.109L48.732,65.109A4.362,4.362 0,0 0,44.362 69.459v96.6a4.362,4.362 0,0 0,4.37 4.353h44.112a4.362,4.362 0,0 0,4.37 -4.353L97.214,69.459A4.362,4.362 0,0 0,92.843 65.109Z"/>
    <path d="M55.761,65.916L85.809,65.916A11,11 0,0 1,96.809 76.916L96.809,159.012A11,11 0,0 1,85.809 170.012L55.761,170.012A11,11 0,0 1,44.761 159.012L44.761,76.916A11,11 0,0 1,55.761 65.916z" fill="#535461"/>
    <path d="M48.594,75.599h44.382v84.73h-44.382z" fill="#fff"/>
    <path d="M65.539,70.757m-0.403,0a0.403,0.403 0,1 1,0.806 0a0.403,0.403 0,1 1,-0.806 0" fill="#fff"/>
    <path d="M67.96,70.354L76.03,70.354A0.403,0.403 0,0 1,76.433 70.757L76.433,70.758A0.403,0.403 0,0 1,76.03 71.161L67.96,71.161A0.403,0.403 0,0 1,67.557 70.758L67.557,70.757A0.403,0.403 0,0 1,67.96 70.354z" fill="#fff"/>
    <path d="M70.583,164.363m-2.824,0a2.824,2.824 0,1 1,5.648 0a2.824,2.824 0,1 1,-5.648 0" fill="#fff"/>
    <path d="M246.337,177.416a0.369,0.369 0,0 1,-0.036 0.113,11.813 11.813,0 0,0 -0.633,2.134c0.1,-0.315 0.21,-0.638 0.339,-0.96A5.862,5.862 0,0 0,246.337 177.416Z" fill="#dddbe2"/>
    <path d="M207.966,180.002c-0.214,0.056 -0.424,0.343 -0.621,0.734l0.065,-0.024c0.177,-0.048 0.48,-0.4 0.847,-0.928a0.784,0.784 0,0 1,-0.291 0.218Z" fill="#dddbe2"/>
</svg>