<?xml version="1.0" encoding="UTF-8" standalone="no"?><!--
  ~ Copyright (C) 2020, Ibnsina Pharma
  ~ All rights reserved.
  --><svg xmlns:android="http://schemas.android.com/apk/res/android" android:autoMirrored="true" height="425.19" width="480" xmlns="http://www.w3.org/2000/svg">
    <path d="M438.63,0.69l0,0l0,0l0,0l0,0z" fill="#586068"/>
    <path d="M15.37,246.7h0c2.13,-7.88 6.12,-16.7 12.12,-26.42a248.72,248.72 0,0 1,24 -31.9,432.39 432.39,0 0,1 35.38,-35.95l10.69,-3.1 2.08,1.82 0,0 0.29,0.25a429,429 0,0 1,36.5 36.95,246.86 246.86,0 0,1 24,31.9c6,9.72 10,18.54 12.13,26.42h0a51.28,51.28 0,0 1,2 13.55A80.06,80.06 0,0 1,168.26 291.6,81.11 81.11,0 0,1 139,327.06a80.64,80.64 0,0 1,-123.6 -48.86h0a80.36,80.36 0,0 1,-2 -18,51.28 51.28,0 0,1 2,-13.55ZM31.13,154.6a22.37,22.37 0,0 1,-2 -3.21,60.32 60.32,0 0,1 -3,-6.77c-0.86,-2.27 -1.54,-4.36 -1.91,-5.65h0a4,4 0,0 1,0.65 -3.55,4 4,0 0,1 2.13,-1.48L204.88,82.4v21.88L97.37,135.43l-15.66,4.54L31.13,154.6ZM29.23,155.15h0ZM221.67,55.63a17.62,17.62 0,0 1,7.73 -6l12.54,-0.11a17.58,17.58 0,0 1,10.55 11.15l0.8,34.64v34.3a3.07,3.07 0,0 1,-0.22 1.16,3.11 3.11,0 0,1 -1.06,1.35 3.07,3.07 0,0 1,-1.54 0.57L221.13,132.69a2.92,2.92 0,0 1,-1.06 -0.28,3.12 3.12,0 0,1 -1.29,-1.13 3,3 0,0 1,-0.48 -1.67L218.3,109.32h0L218.3,73.47h0v-7.48a17.37,17.37 0,0 1,3.37 -10.33ZM442.37,13.6a4.06,4.06 0,0 1,3.55 0.64,4 4,0 0,1 1.48,2.14 4.34,4.34 0,0 1,0.1 0.69c0,0.4 0.07,0.92 0.07,1.53a39.55,39.55 0,0 1,-0.48 5.67,47.86 47.86,0 0,1 -1,4.71 30.91,30.91 0,0 1,-1 3.14,14.42 14.42,0 0,1 -1.39,3l-52.67,15.26 -20.75,6L266.51,86.42 266,64.69 442.37,13.6ZM428.48,101.76a248.72,248.72 0,0 1,24 31.9A120,120 0,0 1,461.76 151.6L310.23,151.6A119,119 0,0 1,319.48 133.6a246.86,246.86 0,0 1,24 -31.9,431.84 431.84,0 0,1 32.1,-33l15.72,-4.56 0.32,0.29h0l1,0.89a431.85,431.85 0,0 1,35.81 36.33ZM460.24,204.96A81.11,81.11 0,0 1,431 240.42,80.56 80.56,0 0,1 305.4,173.6a47.92,47.92 0,0 1,0.82 -8.61L465.76,164.99a47.92,47.92 0,0 1,0.82 8.61,80.1 80.1,0 0,1 -6.34,31.33ZM267,373.69a9.43,9.43 0,0 1,4.11 3.21,9 9,0 0,1 1.17,2.26 8.47,8.47 0,0 1,0.44 2.55h0v0.15a15.1,15.1 0,0 0,6.56 12.47,15 15,0 0,0 8.44,2.61h19.87a7.19,7.19 0,0 1,2.88 0.58,7.51 7.51,0 0,1 3.28,2.69 7.47,7.47 0,0 1,0.68 7,7.52 7.52,0 0,1 -2.7,3.28 7.31,7.31 0,0 1,-4.14 1.26L164,411.75a7.38,7.38 0,0 1,-2.89 -0.58,7.46 7.46,0 0,1 -3.28,-2.7 7.34,7.34 0,0 1,-1.26 -4.15,7.38 7.38,0 0,1 3.28,-6.16 7.32,7.32 0,0 1,4.15 -1.26h19.86a15,15 0,0 0,12.47 -6.7,15.12 15.12,0 0,0 2.53,-8.38h0v-0.14h0a8.43,8.43 0,0 1,0.76 -3.34,9.1 9.1,0 0,1 3.38,-3.86 9.55,9.55 0,0 1,5.16 -1.52h55.23a9.52,9.52 0,0 1,3.58 0.7ZM244.08,146.18L244.08,359.6L227.51,359.6L227.51,146.18ZM2.36,281.18h0A94,94 0,0 0,188 260.25a65,65 0,0 0,-2.42 -17.07h0c-2.58,-9.49 -7.16,-19.41 -13.66,-29.94A261,261 0,0 0,146.62 179.6c-9.41,-10.81 -18.71,-20.24 -25.78,-27.08 -3.2,-3.1 -5.94,-5.66 -8,-7.58l92.07,-26.67v11.43a16.48,16.48 0,0 0,6.8 13.35,16.21 16.21,0 0,0 2.41,1.45L214.12,359.6h-5.91a23,23 0,0 0,-18.58 9.49,21.81 21.81,0 0,0 -4.13,12.41h0v0.35h0a1.7,1.7 0,0 1,-0.14 0.69,1.64 1.64,0 0,1 -0.59,0.73 1.42,1.42 0,0 1,-0.86 0.26L164,383.53a20.85,20.85 0,0 0,0 41.69L307.58,425.22a20.86,20.86 0,0 0,20.84 -20.85,20.84 20.84,0 0,0 -20.84,-20.84L287.71,383.53a1.37,1.37 0,0 1,-0.6 -0.12,1.58 1.58,0 0,1 -0.7,-0.59 1.77,1.77 0,0 1,-0.29 -1v-0.34h0a21.75,21.75 0,0 0,-2 -8.68,22.51 22.51,0 0,0 -8.33,-9.57A23,23 0,0 0,263.41 359.6L257.5,359.6L257.5,144.49a16.48,16.48 0,0 0,9.21 -14.81L266.71,100.33l81.62,-23.65c-4.72,4.88 -9.81,10.36 -14.94,16.25A260.93,260.93 0,0 0,308.06 126.6c-6.5,10.53 -11.08,20.45 -13.66,29.93h0A64.78,64.78 0,0 0,292 173.6a94,94 0,0 0,188 0,65.23 65.23,0 0,0 -2.42,-17.08h0l-0.06,-0.22h0c-2.59,-9.42 -7.14,-19.25 -13.58,-29.7a260.93,260.93 0,0 0,-25.33 -33.67c-9.41,-10.81 -18.71,-20.23 -25.77,-27.07 -2.41,-2.33 -4.56,-4.35 -6.36,-6l41.89,-12.13a10.28,10.28 0,0 0,2.55 -1.15,12.58 12.58,0 0,0 3.21,-2.93A18.15,18.15 0,0 0,456 40.8a32.13,32.13 0,0 0,2.24 -5.32,56.2 56.2,0 0,0 2.06,-8.61A53.42,53.42 0,0 0,461 18.6a29,29 0,0 0,-0.14 -3,16.24 16.24,0 0,0 -0.55,-3h0a17.45,17.45 0,0 0,-21.66 -11.92L263.12,51.6A31,31 0,0 0,245 36.47a6.86,6.86 0,0 0,-2.06 -0.31h-1L241.94,6.71a6.71,6.71 0,1 0,-13.41 0v29.58h-0.49a6.59,6.59 0,0 0,-2.06 0.34,30.93 30.93,0 0,0 -21.17,29.34v2.45L23.23,121.06a17.49,17.49 0,0 0,-11.93 21.66c0.45,1.55 1.13,3.65 2,6 0.67,1.79 1.44,3.71 2.32,5.64 0.66,1.45 1.38,2.9 2.18,4.31a35,35 0,0 0,1.92 3.07,26.54 26.54,0 0,0 1.71,2.16 15.28,15.28 0,0 0,3.41 2.92,11.76 11.76,0 0,0 2.42,1.12 10,10 0,0 0,3 0.47,9.61 9.61,0 0,0 2.66,-0.38h0l26.16,-7.58c-5.46,5.55 -11.57,12 -17.72,19.1a260.2,260.2 0,0 0,-25.33 33.66c-6.49,10.53 -11.07,20.45 -13.65,29.94A65,65 0,0 0,0 260.25a93.34,93.34 0,0 0,2.36 20.94Z" fill="#4e5fab"/>
    <path d="M11.3,142.72l0,0l0,0l0,0l0,0z" fill="#586068"/>
    <path d="M2.42,243.18l0,0l0,-0.01l0,0.01l0,0z" fill="#586068"/>
    <path d="M81.87,240.5a16.62,16.62 0,0 1,-3.81 -3.29,14 14,0 0,1 -2.51,-4.48 19.65,19.65 0,0 1,-0.9 -6.38,18.2 18.2,0 0,1 2.79,-10q2.79,-4.38 9,-6l0.07,32.68a51.26,51.26 0,0 1,-4.61 -2.59ZM97,262.82a51.29,51.29 0,0 1,13.35 8.27,15.21 15.21,0 0,1 5.58,11.86q0,10 -5.68,15.24A27.36,27.36 0,0 1,97 305.07L97,262.82ZM63,306.82a42.19,42.19 0,0 0,10.46 7.08,43.85 43.85,0 0,0 13,3.88v7c0,3.72 1.72,5.58 5.18,5.58s5.38,-1.86 5.38,-5.58v-7A38.44,38.44 0,0 0,109 314.6a35.35,35.35 0,0 0,10.33 -7,32.78 32.78,0 0,0 7.21,-10.66A36.13,36.13 0,0 0,129.25 282.6a26.52,26.52 0,0 0,-2.6 -11.86,35.94 35.94,0 0,0 -6.92,-9.57A46.68,46.68 0,0 0,109.5 253.6,131.19 131.19,0 0,0 97,247.47L97,210.21a20.52,20.52 0,0 1,8.77 4.48,12.7 12.7,0 0,1 4.58,9.27c0.4,4 2.39,6 6,6a6.19,6.19 0,0 0,4.68 -2,7 7,0 0,0 1.9,-5 21.7,21.7 0,0 0,-2.2 -9.66,25.78 25.78,0 0,0 -5.78,-7.78 30.79,30.79 0,0 0,-8.27 -5.38,33.46 33.46,0 0,0 -9.66,-2.69v-4.78q0,-6.37 -5.58,-6.38 -5,0 -5,6.38v4.78a31.93,31.93 0,0 0,-9.27 3.09,30.21 30.21,0 0,0 -8,5.88 25.51,25.51 0,0 0,-5.48 8.67,30.57 30.57,0 0,0 -2,11.26 28.57,28.57 0,0 0,7.08 19.53,36.29 36.29,0 0,0 7.77,6.68 74,74 0,0 0,9.87 5.28v47a29.26,29.26 0,0 1,-13.06 -6.18,20.36 20.36,0 0,1 -7.27,-12.75c-1.07,-3.06 -3.12,-4.59 -6.18,-4.59a7.12,7.12 0,0 0,-4.58 1.6,6 6,0 0,0 -2,5 20.9,20.9 0,0 0,2.59 9.86,34.63 34.63,0 0,0 7.08,9.07Z" fill="#4e5fab"/>
</svg>