<?xml version="1.0" encoding="UTF-8" standalone="no"?><!--
  ~ Copyright (C) 2020, Ibnsina Pharma
  ~ All rights reserved.
  --><svg xmlns:android="http://schemas.android.com/apk/res/android" android:autoMirrored="true" height="44.758" width="46.517" xmlns="http://www.w3.org/2000/svg">
    <path d="M19.763,26.367m-5.5,0a5.5,5.5 0,1 1,11 0a5.5,5.5 0,1 1,-11 0" fill="#000000" fill-opacity="0.0" stroke="#4d5fab" stroke-width="2"/>
    <path d="M13.9476,20.3406h-6.144l-3.615,3.5v4.929l3.205,3.677h6.554" fill="#000000" fill-opacity="0.0" stroke="#4d5fab" stroke-width="2"/>
    <path android:strokeLineCap="round" android:strokeLineJoin="round" d="M28.013,35.7537h-27.013v-18.806h39.045v2.789" fill="#000000" fill-opacity="0.0" stroke="#4d5fab" stroke-width="2"/>
    <path android:strokeLineCap="round" android:strokeLineJoin="round" d="M2.39,14.4236l1.852,-7.765 31.812,7.355" fill="#000000" fill-opacity="0.0" stroke="#4d5fab" stroke-width="2"/>
    <path android:strokeLineCap="round" android:strokeLineJoin="round" d="M11.0169,4.367l1.7,-3.369 18.963,8.064" fill="#000000" fill-opacity="0.0" stroke="#4d5fab" stroke-width="2"/>
    <path android:strokeLineCap="round" d="M26.2513,19.8299h7.686" fill="#000000" fill-opacity="0.0" stroke="#4d5fab" stroke-width="2"/>
    <path d="M20.142,25.701h-0.784c-0.244,0 -0.392,-0.136 -0.392,-0.2s0.148,-0.2 0.392,-0.2h1.96a0.784,0.784 0,0 0,0 -1.568h-0.784a0.784,0.784 0,0 0,-1.568 0v0.035a1.825,1.825 0,0 0,-1.568 1.725,1.872 1.872,0 0,0 1.96,1.768h0.784c0.244,0 0.392,0.136 0.392,0.2s-0.148,0.2 -0.392,0.2h-1.96a0.784,0.784 0,0 0,0 1.568h0.784a0.784,0.784 0,0 0,1.568 0v-0.035a1.825,1.825 0,0 0,1.568 -1.725A1.872,1.872 0,0 0,20.142 25.701Z" fill="#4d5fab"/>
    <path d="M38.856,22.469c-3.692,0 -7.662,0.872 -7.662,2.786v16.717c0,1.914 3.97,2.786 7.662,2.786s7.662,-0.872 7.662,-2.786L46.518,25.255C46.518,23.341 42.548,22.469 38.856,22.469ZM45.125,41.962c-0.105,0.387 -2.194,1.4 -6.269,1.4s-6.164,-1.017 -6.269,-1.393v-1.095a18.487,18.487 0,0 0,12.538 0ZM45.125,39.176c-0.105,0.387 -2.194,1.4 -6.269,1.4s-6.164,-1.017 -6.269,-1.393v-1.095a18.487,18.487 0,0 0,12.538 0ZM45.125,36.39c-0.105,0.387 -2.194,1.4 -6.269,1.4s-6.164,-1.017 -6.269,-1.393v-1.095a18.487,18.487 0,0 0,12.538 0ZM45.125,33.604c-0.105,0.387 -2.194,1.4 -6.269,1.4s-6.164,-1.017 -6.269,-1.393v-1.095a18.487,18.487 0,0 0,12.538 0ZM45.125,30.818c-0.105,0.387 -2.194,1.4 -6.269,1.4s-6.164,-1.017 -6.269,-1.393v-1.095a18.487,18.487 0,0 0,12.538 0ZM45.125,28.032c-0.105,0.387 -2.194,1.4 -6.269,1.4s-6.164,-1.017 -6.269,-1.393L32.587,26.946a18.487,18.487 0,0 0,12.538 0ZM38.856,26.649c-4.068,0 -6.157,-1.014 -6.269,-1.381v0c0.112,-0.388 2.2,-1.4 6.269,-1.4 4.04,0 6.13,1 6.269,1.393C44.985,25.649 42.896,26.648 38.856,26.648Z" fill="#4d5fab"/>
</svg>