<?xml version="1.0" encoding="UTF-8" standalone="no"?><!--
  ~ Copyright (C) 2020, Ibnsina Pharma
  ~ All rights reserved.
  --><svg xmlns:android="http://schemas.android.com/apk/res/android" height="405.46" width="480" xmlns="http://www.w3.org/2000/svg">
    <path d="M410.54,323.3a31.05,31.05 0,0 1,-31.07 31.07L304.74,354.37a31.05,31.05 0,0 1,-31.06 -31.07L273.68,262.89a4.07,4.07 0,0 1,0.33 -1.66,4.34 4.34,0 0,1 1.55,-1.89 4.18,4.18 0,0 1,2.38 -0.72L406.27,258.62a4.27,4.27 0,0 1,4.27 4.27v60.41ZM371.91,214.02v31.18h-59.6L312.31,214.02a9.3,9.3 0,0 1,0.73 -3.63,9.41 9.41,0 0,1 3.41,-4.13 9.31,9.31 0,0 1,5.22 -1.6h40.88a9.13,9.13 0,0 1,3.63 0.74,9.38 9.38,0 0,1 5.73,8.62ZM290.06,214.02A31.35,31.35 0,0 1,292.54 201.73,31.87 31.87,0 0,1 304,187.82a31.36,31.36 0,0 1,17.65 -5.4h40.88a31.35,31.35 0,0 1,12.28 2.48,31.85 31.85,0 0,1 13.92,11.47 31.33,31.33 0,0 1,5.4 17.65L394.13,244.73h-8.83L385.3,214.02a22.77,22.77 0,0 0,-22.77 -22.77L321.67,191.25a22.79,22.79 0,0 0,-22.78 22.77L298.89,244.73h-8.83L290.06,214.02ZM416.16,248.23a17.56,17.56 0,0 0,-8.59 -3L407.57,214.02A44.68,44.68 0,0 0,404 196.51a45.06,45.06 0,0 0,-41.47 -27.51L321.67,169a44.73,44.73 0,0 0,-17.52 3.55,45.1 45.1,0 0,0 -27.51,41.47v31.24a17.35,17.35 0,0 0,-5.58 1.34,17.64 17.64,0 0,0 -10.8,16.29v60.41a44.5,44.5 0,0 0,44.48 44.49h74.73A44.47,44.47 0,0 0,424 323.3L424,262.89a17.45,17.45 0,0 0,-1.39 -6.89,17.7 17.7,0 0,0 -6.4,-7.77Z" fill="#4e5fab"/>
    <path d="M350.18,296.28a8.73,8.73 0,0 1,-2.05 2.87,15.35 15.35,0 0,0 -3.64,5.23 15.62,15.62 0,0 0,-1.25 6.15v14.81a1,1 0,0 1,-0.09 0.43,1.14 1.14,0 0,1 -0.41,0.51 1.12,1.12 0,0 1,-0.63 0.19,1 1,0 0,1 -0.44,-0.09 1.14,1.14 0,0 1,-0.7 -1L340.97,310.53a15.62,15.62 0,0 0,-4.9 -11.39,9 9,0 0,1 -2,-2.87 8.68,8.68 0,0 1,-0.74 -3.55v-0.22a8.54,8.54 0,0 1,0.75 -3.32,9.12 9.12,0 0,1 3.25,-3.82 8.69,8.69 0,0 1,4.82 -1.46h0.09a8.69,8.69 0,0 1,3.4 0.72,8.82 8.82,0 0,1 4.58,11.66ZM354.66,274.36a22.25,22.25 0,0 0,-12.32 -3.88h-0.23a22,22 0,0 0,-8.51 1.71,22.44 22.44,0 0,0 -9.71,7.82 22.08,22.08 0,0 0,-4 12.16c0,0.18 0,0.36 0,0.55a22.21,22.21 0,0 0,7 16.19,2.19 2.19,0 0,1 0.69,1.62v14.81a14.53,14.53 0,0 0,14.55 14.54,14.31 14.31,0 0,0 5.66,-1.14 14.57,14.57 0,0 0,8.89 -13.4L356.68,310.53a2.24,2.24 0,0 1,0.18 -0.91,1.9 1.9,0 0,1 0.46,-0.67 22.19,22.19 0,0 0,7 -16.23,22.23 22.23,0 0,0 -9.68,-18.36Z" fill="#4e5fab"/>
    <path d="M445.33,197.98a124.49,124.49 0,1 1,-224.91 95.9v0a124.49,124.49 0,0 1,224.92 -95.87ZM206.1,244.73L13.42,244.73L13.42,172.58L242.15,172.58a137.6,137.6 0,0 0,-36 72.16ZM25.1,288.5a11.68,11.68 0,0 1,-11.7 -11.69L13.4,258.16L204.53,258.16c-0.2,3.11 -0.32,6.24 -0.32,9.41a137.81,137.81 0,0 0,1.59 20.94ZM13.4,129.5L246.23,129.5a6.71,6.71 0,0 0,0 -13.42L13.42,116.08v-91a11.62,11.62 0,0 1,0.91 -4.55,11.81 11.81,0 0,1 4.25,-5.15 11.61,11.61 0,0 1,6.54 -2h393a11.55,11.55 0,0 1,4.55 0.91,11.81 11.81,0 0,1 5.15,4.25 11.56,11.56 0,0 1,2 6.53v136q-5.09,-4.2 -10.58,-7.92a137.7,137.7 0,0 0,-162.33 5.93L13.42,159.08L13.42,129.53ZM441.24,15.34a25.1,25.1 0,0 0,-23.14 -15.34h-393A25.13,25.13 0,0 0,0 25.11L0,276.82a25,25 0,0 0,2 9.78,25.11 25.11,0 0,0 23.14,15.33L208.53,301.93A137.93,137.93 0,1 0,443.21 173.8L443.21,25.11a25.07,25.07 0,0 0,-2 -9.77Z" fill="#4e5fab"/>
    <path d="M338.12,63.23a1.13,1.13 0,0 1,0.09 -0.47,1.24 1.24,0 0,1 0.45,-0.54 1.14,1.14 0,0 1,0.68 -0.21h34.59a1.22,1.22 0,0 1,0.49 0.09,1.3 1.3,0 0,1 0.54,0.45 1.16,1.16 0,0 1,0.2 0.68v34.6a1.16,1.16 0,0 1,-0.09 0.47,1.3 1.3,0 0,1 -0.45,0.54 1.17,1.17 0,0 1,-0.69 0.2L339.34,99.04a1.16,1.16 0,0 1,-0.47 -0.09,1.27 1.27,0 0,1 -0.55,-0.45 1.18,1.18 0,0 1,-0.2 -0.67L338.12,63.23ZM363.35,41.6a1.36,1.36 0,0 1,0.09 -0.47,1.24 1.24,0 0,1 0.45,-0.54 1.16,1.16 0,0 1,0.68 -0.2h34.6a1.16,1.16 0,0 1,0.47 0.09,1.24 1.24,0 0,1 0.54,0.45 1.15,1.15 0,0 1,0.2 0.67v34.6a1.21,1.21 0,0 1,-0.09 0.48,1.3 1.3,0 0,1 -0.45,0.54 1.15,1.15 0,0 1,-0.67 0.2L388.58,77.42L388.58,63.23a14.67,14.67 0,0 0,-6.46 -12.14,14.67 14.67,0 0,0 -8.19,-2.5L363.35,48.59v-7ZM331.16,109.96a14.68,14.68 0,0 0,8.18 2.5h34.59a14.65,14.65 0,0 0,14.65 -14.63v-7h10.59a14.47,14.47 0,0 0,5.69 -1.16,14.61 14.61,0 0,0 8.94,-13.48v-34.6a14.63,14.63 0,0 0,-14.63 -14.63h-34.6a14.65,14.65 0,0 0,-14.64 14.63v7L339.34,48.59A14.65,14.65 0,0 0,324.7 63.23v34.6a14.55,14.55 0,0 0,1.16 5.7,14.75 14.75,0 0,0 5.3,6.43Z" fill="#4e5fab"/>
    <path d="M56.26,37.62L34.18,37.62a6.71,6.71 0,1 0,0 13.41h22.08a6.71,6.71 0,1 0,0 -13.41Z" fill="#4e5fab"/>
    <path d="M101.28,37.62L79.2,37.62a6.71,6.71 0,1 0,0 13.41h22.08a6.71,6.71 0,1 0,0 -13.41Z" fill="#4e5fab"/>
    <path d="M146.3,37.62L124.22,37.62a6.71,6.71 0,1 0,0 13.41L146.3,51.03a6.71,6.71 0,0 0,0 -13.41Z" fill="#4e5fab"/>
    <path d="M191.32,37.62L169.24,37.62a6.71,6.71 0,1 0,0 13.41h22.08a6.71,6.71 0,0 0,0 -13.41Z" fill="#4e5fab"/>
    <path d="M236.33,37.62L214.26,37.62a6.71,6.71 0,1 0,0 13.41h22.07a6.71,6.71 0,1 0,0 -13.41Z" fill="#4e5fab"/>
    <path d="M281.35,51.03a6.71,6.71 0,1 0,0 -13.41L259.28,37.62a6.71,6.71 0,1 0,0 13.41Z" fill="#4e5fab"/>
</svg>