<?xml version="1.0" encoding="UTF-8" standalone="no"?><!--
  ~ Copyright (C) 2021, Ibnsina Pharma
  ~ All rights reserved.
  --><svg xmlns:android="http://schemas.android.com/apk/res/android" height="45.228" width="98.035" xmlns="http://www.w3.org/2000/svg">
    <path d="M95.8238,8.7736L2.2113,8.7736C1.5434,8.7736 1,8.2826 1,7.6792L1,2.0943C1,1.4909 1.5434,1 2.2113,1L95.8238,1C96.4918,1 97.0351,1.4909 97.0351,2.0943L97.0351,7.6792C97.0351,8.2826 96.4918,8.7736 95.8238,8.7736Z" fill="#fff" stroke="#00000000"/>
    <path d="M2.2113,2C2.0751,2 2.0068,2.0745 2,2.0943L1.9996,7.678C2.0068,7.699 2.0751,7.7735 2.2113,7.7735L95.8238,7.7735C95.9601,7.7735 96.0284,7.6991 96.0351,7.6792L96.0356,2.0956C96.0284,2.0745 95.9601,2 95.8238,2L2.2113,2M2.2113,0L95.8238,0C97.0451,0 98.0351,0.9377 98.0351,2.0943L98.0351,7.6792C98.0351,8.8359 97.0451,9.7735 95.8238,9.7735L2.2113,9.7735C0.99,9.7735 0,8.8359 0,7.6792L0,2.0943C0,0.9377 0.99,0 2.2113,0Z" fill="#fff" stroke="#00000000"/>
    <path d="M92.0526,13.066l-2.547,31.161h-80.658l-3.229,-32.035Z" fill="#fff" stroke="#fff" stroke-width="2"/>
    <path d="M54.047,24.197l-4.039,0.043 0.043,0.765 4.039,-0.043" fill="#9f58a3"/>
    <path d="M49.243,22.029 L48.478,22.068L48.478,20.711L49.201,20.668" fill="#57c1e9"/>
    <path d="M50.478,18.372l-0.3,0.723 0.723,0.3 0.3,-0.765" fill="#ad3190"/>
    <path d="M46.267,27.981l-0.468,0.638 0.6,0.425 0.468,-0.638" fill="#9b97ca"/>
    <path d="M46.437,17.692 L45.799,17.992l0.935,2.508 0.68,-0.3" fill="#c18dbf"/>
    <path d="M49.158,29.511l-0.723,0.085L48.223,27.513l0.765,-0.085" fill="#ca5ba2"/>
    <path d="M52.474,29.426l-0.6,0.468L48.903,26.11l0.6,-0.425" fill="#9279b7"/>
    <path d="M47.5,22.666l-0.6,0.51L44.779,20.753 45.332,20.243" fill="#00518a"/>
    <path d="M49.966,22.582l0.6,0.51L53.537,19.478 52.985,18.968" fill="#0083bf"/>
    <path d="M42.823,25.686l-0.128,-0.723 5.272,-0.638 -0.085,0.723" fill="#4d5fab"/>
    <path d="M42.185,30.575 L41.675,30.025l6.292,-5.7 0.468,0.553" fill="#4d5fab"/>
    <path d="M52.645,23.092 L52.432,22.327 55.196,21.604l0.213,0.723" fill="#685aa7"/>
    <path d="M43.291,23.474L43.291,22.709h1.446v0.765" fill="#005da6"/>
    <path d="M51.752,26.96l0.34,-0.68 1.956,0.978 -0.3,0.68" fill="#f48474"/>
    <path d="M52.474,32.488a3.506,3.506 0,0 0,-1.19 0.17v2.764c0,0.425 0.553,0.638 1.19,0.638 1.02,0 1.361,-0.34 1.361,-1.786 0,-1.488 -0.34,-1.786 -1.361,-1.786m0,4.082a1.57,1.57 0,0 1,-1.19 -0.383v1.913h-0.553L50.731,32.317a4.891,4.891 0,0 1,1.743 -0.34c1.361,0 2,0.51 2,2.3s-0.638,2.3 -2,2.3m6.675,-2.594v2.466h-0.553L58.596,34.061c0,-1.318 -0.255,-1.616 -1.148,-1.616 -0.638,0 -1.19,0.213 -1.19,0.6v3.359h-0.553L55.705,30.194h0.553v2.126a2.3,2.3 0,0 1,1.276 -0.34c1.148,-0.043 1.616,0.425 1.616,2m4.082,1.913L63.232,34.273a4.627,4.627 0,0 0,-1.19 -0.128c-0.893,0 -1.148,0.085 -1.148,0.893 0,0.893 0.255,1.02 1.148,1.02a4.432,4.432 0,0 0,1.19 -0.17m0.6,0.34a4.715,4.715 0,0 1,-1.743 0.34c-1.233,0 -1.786,-0.34 -1.786,-1.488 0,-1.233 0.765,-1.446 1.743,-1.446a5.772,5.772 0,0 1,1.233 0.128c0,-1.063 -0.255,-1.318 -1.276,-1.318a2.9,2.9 0,0 0,-1.233 0.213l-0.17,-0.51a5.8,5.8 0,0 1,1.446 -0.213c1.276,0 1.828,0.383 1.828,1.7v2.594ZM67.361,31.976v0.6c-0.128,0 -0.3,-0.043 -0.468,-0.043 -0.638,0 -1.233,0.17 -1.233,0.6L65.66,36.484h-0.553L65.107,32.062h0.553v0.3a1.6,1.6 0,0 1,1.233 -0.425c0.17,0 0.34,0.043 0.468,0.043m1.276,4.464h-0.553L68.084,32.275a4.666,4.666 0,0 1,1.7 -0.34,1.819 1.819,0 0,1 1.19,0.3 5.175,5.175 0,0 1,1.616 -0.3c1.276,0 1.658,0.425 1.658,2.041v2.466h-0.553L73.695,34.061c0,-1.318 -0.255,-1.616 -1.19,-1.616a3.358,3.358 0,0 0,-1.19 0.213,3.521 3.521,0 0,1 0.17,1.318v2.466h-0.553L70.932,34.061c0,-1.318 -0.255,-1.616 -1.19,-1.616a3.947,3.947 0,0 0,-1.02 0.128v3.869ZM78.331,35.891L78.331,34.273a5.111,5.111 0,0 0,-1.19 -0.128c-0.85,0 -1.148,0.085 -1.148,0.893 0,0.893 0.255,1.02 1.148,1.02a5.018,5.018 0,0 0,1.19 -0.17m0.553,0.34a4.715,4.715 0,0 1,-1.743 0.34c-1.233,0 -1.786,-0.34 -1.786,-1.488 0,-1.233 0.765,-1.446 1.743,-1.446a5.772,5.772 0,0 1,1.233 0.128c0,-1.063 -0.3,-1.318 -1.276,-1.318a2.9,2.9 0,0 0,-1.233 0.213l-0.17,-0.51a5.8,5.8 0,0 1,1.446 -0.213c1.276,0 1.828,0.383 1.828,1.7v2.594ZM24.796,35.506A1.926,1.926 0,0 1,24.119 35.379L24.119,33.294c0,-0.213 0.3,-0.3 0.723,-0.3 0.638,0 0.808,0.255 0.808,1.19 0,1.148 -0.213,1.318 -0.85,1.318m0.425,-3.7A2.649,2.649 0,0 0,24.119 32.062L24.119,30.319L22.755,30.319v5.952a7.131,7.131 0,0 0,2.041 0.3c1.531,0 2.211,-0.6 2.211,-2.423S26.369,31.807 25.219,31.807m4.124,4.634L27.985,36.441L27.985,32.194a7.36,7.36 0,0 1,2.3 -0.425c1.233,0 1.871,0.51 1.871,2.168v2.508L30.791,36.445L30.791,34.061c0,-0.808 -0.128,-1.063 -0.808,-1.063a3.282,3.282 0,0 0,-0.638 0.085ZM36.273,33.041a6.1,6.1 0,0 0,-1.318 -0.213c-0.425,0 -0.638,0.043 -0.638,0.383 0,0.255 0.128,0.3 0.808,0.383 1.063,0.128 1.531,0.468 1.531,1.4 0,1.233 -0.893,1.573 -2,1.573a5.14,5.14 0,0 1,-1.616 -0.255l0.255,-1.02a5.785,5.785 0,0 0,1.276 0.17c0.51,0 0.765,-0.043 0.765,-0.383 0,-0.255 -0.17,-0.34 -0.893,-0.425 -0.935,-0.085 -1.446,-0.383 -1.446,-1.318 0,-1.233 0.893,-1.531 2,-1.531a4.626,4.626 0,0 1,1.531 0.255ZM37.506,31.936L38.869,31.936L38.869,36.484L37.508,36.484ZM47.883,35.464A2.224,2.224 0,0 1,47.119 35.594c-0.51,0 -0.638,-0.085 -0.638,-0.553s0.17,-0.51 0.68,-0.51a3.891,3.891 0,0 1,0.723 0.043ZM47.203,31.808a7.028,7.028 0,0 0,-1.956 0.255l0.213,1.063a4.635,4.635 0,0 1,1.4 -0.213c0.893,0 1.02,0.17 1.02,0.808a4.194,4.194 0,0 0,-1.02 -0.128c-1.063,0 -1.786,0.213 -1.786,1.488 0,1.19 0.425,1.488 1.913,1.488A6.957,6.957 0,0 0,49.119 36.229L49.119,33.55c0.085,-1.318 -0.553,-1.743 -1.913,-1.743m-8.248,-1.276c0,0.6 -0.213,0.723 -0.765,0.723 -0.6,0 -0.765,-0.128 -0.765,-0.723 0,-0.553 0.17,-0.638 0.765,-0.638s0.765,0.085 0.765,0.638m3.359,1.276a5.234,5.234 0,0 0,-0.85 0.085L40.019,33.423v3.019h1.361L41.38,33.083A3.282,3.282 0,0 1,42.019 32.994c0.68,0 0.808,0.213 0.808,1.063L42.827,36.484h1.361L44.188,33.976c0,-1.658 -0.638,-2.168 -1.871,-2.168M20.204,31.935L21.565,31.935L21.565,36.484L20.204,36.484ZM21.65,30.535c0,0.6 -0.213,0.723 -0.765,0.723 -0.6,0 -0.765,-0.128 -0.765,-0.723 0,-0.553 0.17,-0.638 0.765,-0.638s0.765,0.085 0.765,0.638" fill="#4d5fab"/>
</svg>