<?xml version="1.0" encoding="UTF-8" standalone="no"?><svg xmlns:android="http://schemas.android.com/apk/res/android" height="25.947" width="25.947" xmlns="http://www.w3.org/2000/svg">
  <path d="M2.595,2.595L23.353,2.595L23.353,18.163L4.113,18.163L2.595,19.681L2.595,2.595M2.595,0A2.591,2.591 0,0 0,0.013 2.595L0,25.947l5.189,-5.189L23.353,20.758a2.6,2.6 0,0 0,2.595 -2.595L25.948,2.595A2.6,2.6 0,0 0,23.353 0ZM5.189,12.974L15.568,12.974v2.595L5.189,15.569ZM5.189,9.082L20.758,9.082v2.595L5.189,11.677ZM5.189,5.19L20.758,5.19L20.758,7.784L5.189,7.784Z" fill="#4d5fab"/>
</svg>