<?xml version="1.0" encoding="UTF-8" standalone="no"?><!--
  ~ Copyright (C) 2021, Ibnsina Pharma
  ~ All rights reserved.
  --><svg xmlns:android="http://schemas.android.com/apk/res/android" height="75.639" width="217.507" xmlns="http://www.w3.org/2000/svg">
    <path d="M125.593,24.045l-14.916,0.224 0.064,2.788 14.92,-0.223Z" fill="#854493"/>
    <path d="M107.743,16.1l-2.77,0.062 -0.056,-5.034 2.771,-0.064Z" fill="#3db6e5"/>
    <path d="M112.433,2.504l-1.129,2.749 2.578,1.028 1.132,-2.753Z" fill="#951f7f"/>
    <path d="M96.755,38.051l-1.773,2.377 2.247,1.64 1.77,-2.38Z" fill="#8185bf"/>
    <path d="M97.48,-0.002l-2.5,1.135 3.6,9.213 2.495,-1.129Z" fill="#ad79b3"/>
    <path d="M107.479,43.821l-2.711,0.305 -0.7,-7.822 2.713,-0.305Z" fill="#b74592"/>
    <path d="M119.828,43.503l-2.254,1.629 -11.09,-13.929 2.254,-1.621Z" fill="#7765a9"/>
    <path d="M101.381,18.441l-2.217,1.821 -7.818,-8.942 2.008,-1.937Z" fill="#004178"/>
    <path d="M110.539,18.106l2.094,1.844L123.717,6.642l-2.1,-1.844Z" fill="#0072b3"/>
    <path d="M83.967,29.602l-0.345,-2.768 19.379,-2.266 -0.2,2.715Z" fill="#2d4d9c"/>
    <path d="M81.699,47.691l-1.863,-2.068L103.001,24.564l1.863,2.07Z" fill="#2d4d9c"/>
    <path d="M120.401,19.936l-0.774,-2.721 10.182,-2.73 0.776,2.726Z" fill="#4a4897"/>
    <path d="M85.716,21.35l0.057,-2.829 5.318,0.082L91.036,21.43Z" fill="#004c97"/>
    <path d="M117.128,34.378l1.149,-2.586 7.358,3.543 -1.157,2.584Z" fill="#f06d60"/>
    <path d="M119.768,54.78a13.7,13.7 0,0 0,-4.445 0.675v10.154c0,1.509 2.042,2.315 4.445,2.315 3.768,0 5.017,-1.316 5.017,-6.591 0,-5.522 -1.249,-6.554 -5.017,-6.554m0,15.135a6.783,6.783 0,0 1,-4.445 -1.347v7.072h-2.079L113.244,54.07a18.1,18.1 0,0 1,6.524 -1.285c4.988,0 7.32,1.864 7.32,8.487 0,6.653 -2.3,8.643 -7.32,8.643" fill="#2d4d9c"/>
    <path d="M144.419,60.304v9.161h-2.081v-8.736c0,-4.957 -1.018,-5.95 -4.249,-5.95 -2.3,0 -4.476,0.8 -4.476,2.279v12.408h-2.079v-23.2h2.079v7.844a8.287,8.287 0,0 1,4.7 -1.32c4.382,0 6.11,1.61 6.11,7.519" fill="#2d4d9c"/>
    <path d="M159.635,67.281v-5.915a19.409,19.409 0,0 0,-4.345 -0.413c-3.229,0 -4.316,0.349 -4.316,3.339 0,3.246 0.926,3.734 4.316,3.734a13.093,13.093 0,0 0,4.345 -0.744m2.081,1.348a17.55,17.55 0,0 1,-6.523 1.286c-4.634,0 -6.552,-1.254 -6.552,-5.462 0,-4.63 2.78,-5.366 6.394,-5.366a20,20 0,0 1,4.6 0.512c0,-3.985 -1.02,-4.82 -4.762,-4.82a12.813,12.813 0,0 0,-4.638 0.77l-0.6,-1.961a19.885,19.885 0,0 1,5.374 -0.8c4.7,0 6.71,1.384 6.71,6.3Z" fill="#2d4d9c"/>
    <path d="M174.856,52.884v2.154a12.486,12.486 0,0 0,-1.661 -0.129c-2.4,0 -4.54,0.671 -4.54,2.15v12.407h-2.079L166.576,53.232h2.079v1.163a5.981,5.981 0,0 1,4.54 -1.61,13.588 13.588,0 0,1 1.661,0.1" fill="#2d4d9c"/>
    <path d="M179.621,69.466h-2.079v-15.4a16.878,16.878 0,0 1,6.268 -1.285c2.012,0 3.389,0.324 4.347,1.126a18.238,18.238 0,0 1,5.947 -1.126c4.669,0 6.106,1.61 6.106,7.519v9.161h-2.081v-8.736c0,-4.957 -1.02,-5.95 -4.411,-5.95a14.78,14.78 0,0 0,-4.474 0.707,14.414 14.414,0 0,1 0.671,4.818v9.161h-2.076v-8.736c0,-4.957 -0.992,-5.95 -4.38,-5.95a13.522,13.522 0,0 0,-3.838 0.547Z" fill="#2d4d9c"/>
    <path d="M215.433,67.281v-5.915a19.525,19.525 0,0 0,-4.352 -0.413c-3.227,0 -4.318,0.349 -4.318,3.339 0,3.246 0.928,3.734 4.318,3.734a13.153,13.153 0,0 0,4.352 -0.744m2.074,1.348a17.551,17.551 0,0 1,-6.52 1.286c-4.637,0 -6.554,-1.254 -6.554,-5.462 0,-4.63 2.782,-5.366 6.394,-5.366a20.072,20.072 0,0 1,4.606 0.512c0,-3.985 -1.025,-4.82 -4.767,-4.82a12.783,12.783 0,0 0,-4.634 0.77l-0.609,-1.961a19.9,19.9 0,0 1,5.37 -0.8c4.7,0 6.715,1.384 6.715,6.3Z" fill="#2d4d9c"/>
    <path d="M17.254,65.891a7.713,7.713 0,0 1,-2.546 -0.425L14.708,57.721c0,-0.722 1.177,-1.178 2.678,-1.178 2.316,0 3.035,0.92 3.035,4.458 0,4.3 -0.784,4.89 -3.167,4.89m1.6,-13.68a9.635,9.635 0,0 0,-4.145 0.95v-6.416L9.68,46.745v22.008a24.482,24.482 0,0 0,7.574 1.178c5.681,0 8.195,-2.128 8.195,-9.024 0,-6.763 -2.25,-8.7 -6.6,-8.7" fill="#2d4d9c"/>
    <path d="M34.158,69.468h-5.03L29.128,53.72a26.857,26.857 0,0 1,8.49 -1.509c4.6,0 6.888,1.933 6.888,7.971v9.286h-5.03L39.476,60.576c0,-3.053 -0.489,-3.871 -2.937,-3.871a9.883,9.883 0,0 0,-2.381 0.292Z" fill="#2d4d9c"/>
    <path d="M59.811,56.865a20.253,20.253 0,0 0,-4.929 -0.718c-1.566,0 -2.351,0.129 -2.351,1.445 0,0.885 0.457,1.114 3.037,1.445 3.882,0.486 5.613,1.673 5.613,5.118 0,4.559 -3.263,5.776 -7.474,5.776a20.478,20.478 0,0 1,-5.944 -0.92l0.98,-3.805a18.464,18.464 0,0 0,4.733 0.686c1.96,0 2.874,-0.165 2.874,-1.472 0,-0.92 -0.555,-1.281 -3.33,-1.543 -3.491,-0.327 -5.354,-1.348 -5.354,-4.925 0,-4.562 3.234,-5.74 7.411,-5.74a19.069,19.069 0,0 1,5.713 0.918Z" fill="#2d4d9c"/>
    <path d="M64.408,52.667h5.027v16.801h-5.027z" fill="#2d4d9c"/>
    <path d="M102.822,65.725a8.231,8.231 0,0 1,-2.775 0.465c-1.959,0 -2.382,-0.3 -2.382,-2.005 0,-1.675 0.651,-1.868 2.446,-1.868a11.271,11.271 0,0 1,2.711 0.232ZM100.242,52.211a31.189,31.189 0,0 0,-7.182 0.888l0.783,4a18.641,18.641 0,0 1,5.195 -0.782c3.261,0 3.785,0.653 3.785,2.979a19.186,19.186 0,0 0,-3.785 -0.424c-3.985,0 -6.531,0.754 -6.531,5.479 0,4.4 1.632,5.58 7.149,5.58a25.9,25.9 0,0 0,7.935 -1.311v-9.88c0,-4.989 -2.351,-6.528 -7.348,-6.528" fill="#2d4d9c"/>
    <path d="M69.761,47.536c0,2.266 -0.717,2.657 -2.84,2.657 -2.152,0 -2.84,-0.391 -2.84,-2.657 0,-2.068 0.688,-2.395 2.84,-2.395 2.123,0 2.84,0.327 2.84,2.395" fill="#2d4d9c"/>
    <path d="M82.163,52.211a23.592,23.592 0,0 0,-3.207 0.258l-5.28,5.752v11.247h5.03v-12.47a9.871,9.871 0,0 1,2.381 -0.292c2.448,0 2.937,0.819 2.937,3.869v8.893h5.03v-9.286c0,-6.038 -2.285,-7.971 -6.892,-7.971" fill="#2d4d9c"/>
    <path d="M0.326,52.667h5.027v16.801h-5.027z" fill="#2d4d9c"/>
    <path d="M5.68,47.536c0,2.266 -0.717,2.657 -2.84,2.657 -2.152,0 -2.84,-0.391 -2.84,-2.657 0,-2.068 0.688,-2.395 2.84,-2.395 2.123,0 2.84,0.327 2.84,2.395" fill="#2d4d9c"/>
</svg>