<?xml version="1.0" encoding="UTF-8" standalone="no"?><!--
  ~ Copyright (C) 2021, Ibnsina Pharma
  ~ All rights reserved.
  --><svg xmlns:android="http://schemas.android.com/apk/res/android" height="48.867" width="52" xmlns="http://www.w3.org/2000/svg">
    <path d="M46.888,24.637l-15.284,0.23 0.065,2.856 15.287,-0.23Z" fill="#9f58a3"/>
    <path d="M28.588,16.498l-2.838,0.065 -0.056,-5.159 2.838,-0.065Z" fill="#57c1e9"/>
    <path d="M33.402,2.567l-1.158,2.816 2.642,1.055 1.161,-2.822Z" fill="#ad3190"/>
    <path d="M17.334,38.991l-1.817,2.436 2.3,1.68 1.814,-2.439Z" fill="#9b97ca"/>
    <path d="M18.078,0l-2.561,1.164 3.684,9.44 2.558,-1.157Z" fill="#c18dbf"/>
    <path d="M28.324,44.902l-2.776,0.311 -0.722,-8.015 2.779,-0.311Z" fill="#ca5ba2"/>
    <path d="M40.976,44.576l-2.309,1.668 -11.363,-14.27 2.309,-1.662Z" fill="#9279b7"/>
    <path d="M22.073,18.897l-2.271,1.864 -8.009,-9.16 2.057,-1.985Z" fill="#00518a"/>
    <path d="M31.458,18.551l2.147,1.892 11.354,-13.638 -2.153,-1.889Z" fill="#0083bf"/>
    <path d="M4.232,30.331l-0.355,-2.838 19.858,-2.321 -0.208,2.782Z" fill="#4d5fab"/>
    <path d="M1.907,48.866l-1.907,-2.119L23.735,25.172l1.907,2.122Z" fill="#4d5fab"/>
    <path d="M41.564,20.427l-0.793,-2.788 10.433,-2.8 0.8,2.791Z" fill="#685aa7"/>
    <path d="M6.024,21.877l0.059,-2.9 5.448,0.084 -0.056,2.9Z" fill="#005da6"/>
    <path d="M38.21,35.226l1.176,-2.651 7.539,3.631 -1.185,2.648Z" fill="#f48474"/>
</svg>