<?xml version="1.0" encoding="UTF-8" standalone="no"?><!--
  ~ Copyright (C) 2021, Ibnsina Pharma
  ~ All rights reserved.
  --><svg xmlns:android="http://schemas.android.com/apk/res/android" height="23.507" width="17.91" xmlns="http://www.w3.org/2000/svg">
    <path d="M15.671,7.836L14.552,7.836L14.552,5.6a5.6,5.6 0,1 0,-11.194 0L3.358,7.836L2.239,7.836A2.245,2.245 0,0 0,-0 10.074L-0,21.268a2.245,2.245 0,0 0,2.239 2.239L15.671,23.507a2.245,2.245 0,0 0,2.239 -2.239L17.91,10.074A2.245,2.245 0,0 0,15.671 7.836ZM5.6,5.6a3.358,3.358 0,0 1,6.716 0L12.316,7.836L5.6,7.836ZM15.671,21.268L2.239,21.268L2.239,10.074L15.671,10.074ZM8.955,17.91a2.239,2.239 0,1 0,-2.239 -2.239A2.245,2.245 0,0 0,8.955 17.91Z" fill="#a5a5a5"/>
</svg>