<?xml version="1.0" encoding="UTF-8" standalone="no"?><!--
  ~ Copyright (C) 2021, Ibnsina Pharma
  ~ All rights reserved.
  --><svg xmlns:android="http://schemas.android.com/apk/res/android" height="23.543" width="23.543" xmlns="http://www.w3.org/2000/svg">
    <path d="M23.543,22.072a1.472,1.472 0,0 1,-1.471 1.471H1.471A1.472,1.472 0,0 1,0 22.072V1.471A1.472,1.472 0,0 1,1.471 0h20.6a1.472,1.472 0,0 1,1.471 1.471Z" fill="#007bb5"/>
    <path d="M5,8.543h3v10h-3z" fill="#fff"/>
    <path d="M15.081,8.093c-2.053,0 -2.407,0.749 -2.574,1.471L12.507,8.093L9.564,8.093L9.564,18.393h2.943L12.507,12.507a1.323,1.323 0,0 1,1.471 -1.471,1.328 1.328,0 0,1 1.471,1.471L15.449,18.393h2.943L18.392,13.243C18.393,10.3 18.009,8.093 15.081,8.093Z" fill="#fff"/>
    <path d="M6.5,6.043m-1.5,0a1.5,1.5 0,1 1,3 0a1.5,1.5 0,1 1,-3 0" fill="#fff"/>
</svg>