<?xml version="1.0" encoding="UTF-8" standalone="no"?><!--
  ~ Copyright (C) 2021, Ibnsina Pharma
  ~ All rights reserved.
  --><svg xmlns:android="http://schemas.android.com/apk/res/android" height="108" width="108" xmlns="http://www.w3.org/2000/svg">
    <g transform="translate(7.668, 7.668) scale(0.9490302, 0.9490302)">
        <g transform="translate(26.444365, 27.830864)">
            <path d="M40.3194,21.1975 L27.1574,21.3365l0.139,2.494L40.4574,23.6915" fill="#9f58a3"/>
            <path d="M24.6628,14.1312l-2.494,0.139L22.1687,9.8372L24.5238,9.6982" fill="#57c1e9"/>
            <path d="M28.6817,2.2172 L27.7117,4.5722l2.355,0.97 0.97,-2.494" fill="#ad3190"/>
            <path d="M14.9631,33.5271 L13.4391,35.6051l1.94,1.385 1.524,-2.078" fill="#9b97ca"/>
            <path d="M15.5171,0 L13.4391,0.97l3.048,8.174 2.217,-0.97" fill="#c18dbf"/>
            <path d="M24.3863,38.5152l-2.355,0.277L21.3383,32.0032l2.494,-0.277" fill="#ca5ba2"/>
            <path d="M35.1915,38.2371 L33.2535,39.7611l-9.7,-12.33L25.4935,26.0451" fill="#9279b7"/>
            <path d="M18.9822,16.2125l-1.94,1.663L10.1152,9.9755 11.9152,8.3125" fill="#00518a"/>
            <path d="M27.0184,15.9323l1.94,1.663 9.7,-11.776L36.8554,4.1563" fill="#0083bf"/>
            <path d="M3.7426,26.0457 L3.3266,23.6907 20.5066,21.6127 20.2266,23.9677" fill="#4d5fab"/>
            <path d="M1.6638,41.9787l-1.663,-1.8L20.5068,21.6127l1.524,1.8" fill="#4d5fab"/>
            <path d="M35.7457,17.5949 L35.0527,15.1009 44.0587,12.7459l0.693,2.355" fill="#685aa7"/>
            <path d="M5.2656,18.8419L5.2656,16.3479h4.711v2.494" fill="#005da6"/>
            <path d="M32.8375,30.2022 L33.9455,27.9852l6.373,3.186 -0.97,2.217" fill="#f48474"/>
        </g>
    </g>
</svg>