<?xml version="1.0" encoding="UTF-8" standalone="no"?><!--
  ~ Copyright (C) 2021, Ibnsina Pharma
  ~ All rights reserved.
  --><svg xmlns:android="http://schemas.android.com/apk/res/android" height="276.02" width="276.02" xmlns="http://www.w3.org/2000/svg">
    <path d="M138.01,0a138,138 0,1 1,-138 138,138 138,0 0,1 138,-138Z" fill="#427899"/>
    <path d="M167.42,145.45l0,0l0,0l0,0l0,0z" fill="#f0f4f7" fill-rule="evenOdd"/>
    <path d="M184.47,170.36c-5.41,-2.49 -16.7,-6 -17.87,-14.4a81.18,81.18 0,0 1,-0.72 -10.47c0,-4.57 0.09,-9.26 0.51,-14.16 -6.12,11.4 -16.22,18.69 -30.91,18.38 -10.29,-0.22 -19.35,-8.77 -25.23,-20.11a169.77,169.77 0,0 1,1.35 17.35c0,0.26 -0.05,2.09 -0.12,4 -0.29,8.38 -9.53,14.4 -17.74,17.24 21,36.65 68,37.44 90.73,2.14Z" fill="#c7d7e1" fill-rule="evenOdd"/>
    <path d="M138.46,149.87c14.69,0.3 21.89,-7 28,-18.38a56.41,56.41 0,0 0,4.92 -13.13c-0.06,-2.51 0.78,-6.48 1.13,-11.84a50.11,50.11 0,0 1,1.69 -10.74v-0.06l-0.35,0.47c-0.64,-10.33 -3.12,-29.15 -4.6,-33.56 -3.33,-2.76 -2.12,-22.11 -35.21,-20 -19.82,-1.17 -28,20.88 -28.1,21.1 -2,3.21 -2.45,16.39 -3.58,31.14 0.05,0.46 0.09,0.9 0.14,1.36a54.4,54.4 0,0 1,1.36 9.91c0.16,2.91 0.46,5.41 0.7,7.49a64.37,64.37 0,0 0,5.75 16.14c6.16,11.89 14.26,20.12 28.14,20.12Z" fill="#c7d7e1" fill-rule="evenOdd"/>
    <path d="M101.99,94.44c0.14,0.14 0.26,0.28 0.38,0.41a15.55,15.55 0,0 0,1.29 1.35c1.13,-7.06 -0.59,-1.65 2.83,-20.91 1,-5.8 1.44,-7.26 2.68,-9.22 0.48,-0.76 3.18,-1.24 7.16,-1.52 15.36,-1.07 49.83,0.81 50,0.93 1.48,4.41 5.53,21.89 7.56,30.71l0.35,-0.47s0,0 0,0c1.16,-3.82 2.85,-6.21 5.14,-6a2.42,2.42 0,0 1,0.66 0.13,184.72 184.72,0 0,0 0.1,-24.83c0.23,-24.81 -26,-34 -45.9,-32.73 -35,2.19 -43,25.52 -37.61,57.47 3.19,0 4.56,2.3 5.37,4.76Z" fill="#004875" fill-rule="evenOdd"/>
    <path d="M170.07,66.72a0.54,0.54 0,0 1,-0.09 0.12,0.18 0.18,0 0,0 0.09,-0.12Z" fill="#80a4ba" fill-rule="evenOdd"/>
    <path d="M167.05,70.17l0.39,0.17s-0.16,-0.11 -0.39,-0.17Z" fill="#80a4ba" fill-rule="evenOdd"/>
    <path d="M105.25,82.97l-0.15,0a0.14,0.14 0,0 0,0.14 0Z" fill="#80a4ba" fill-rule="evenOdd"/>
    <path d="M102.78,96.26c-0.16,-0.63 -0.33,-1.21 -0.52,-1.77 -1.11,-3.33 -2.69,-5.38 -4.81,-5.27a3,3 0,0 0,-1.48 0.51c-3,2 -4.13,9.35 -1.74,16.32 2.76,8 4.43,15.29 8.47,15.06 2.82,-0.15 2.66,-2.71 2.13,-7.45 -0.23,-2.08 -0.53,-4.58 -0.69,-7.49a54.4,54.4 0,0 0,-1.36 -9.91ZM99.51,106.26c0.6,2.52 1.78,2.88 1.69,5 -0.34,8.09 -2.41,1.48 -3.69,-1 -1.57,-3 -2,-9.08 -1.67,-11.38s1.23,-6.81 3.06,-6.71 4.36,6.25 1.91,9.11a5.49,5.49 0,0 0,-1.3 5Z" fill="#c7d7e1" fill-rule="evenOdd"/>
    <path d="M98.9,92.13c-1.82,-0.1 -2.75,4.41 -3.06,6.71s0.1,8.36 1.67,11.38c1.28,2.44 3.35,9.05 3.69,1 0.09,-2.07 -1.09,-2.43 -1.69,-5a5.49,5.49 0,0 1,1.3 -5c2.45,-2.86 -0.17,-9 -1.91,-9.11Z" fill="#b0c6d4" fill-rule="evenOdd"/>
    <path d="M174.24,95.69l0,0.09a50.11,50.11 0,0 0,-1.69 10.74c-0.35,5.35 -1.19,9.33 -1.13,11.84 0.05,1.94 0.63,3 2.4,3.11 4,0.26 5.79,-7 8.63,-15 2.67,-7.55 1.18,-15.62 -2.39,-16.73a2.42,2.42 0,0 0,-0.66 -0.13c-2.29,-0.16 -4,2.23 -5.14,6ZM179.1,110.69c-1.3,2.43 -3.45,9 -3.7,0.93 -0.07,-2.08 1.11,-2.43 1.73,-4.94a5.45,5.45 0,0 0,-1.24 -5c-2.42,-2.89 0.26,-9 2,-9.09s2.7,4.44 3,6.74 -0.18,8.36 -1.78,11.36Z" fill="#c7d7e1" fill-rule="evenOdd"/>
    <path d="M177.9,92.58c-1.75,0.07 -4.43,6.2 -2,9.09a5.45,5.45 0,0 1,1.24 5c-0.62,2.51 -1.8,2.86 -1.73,4.94 0.25,8.08 2.4,1.5 3.7,-0.93 1.6,-3 2.07,-9.06 1.78,-11.36s-1.16,-6.82 -3,-6.74Z" fill="#b0c6d4" fill-rule="evenOdd"/>
    <path d="M169.3,161.46c-20.71,2.71 -52.13,-10.06 -58.84,-31.69 4.94,10 17.26,20.15 29.21,20.13 11.53,0 21.86,-9.28 26.84,-18.57 -0.89,10.32 -1.58,20.69 2.79,30.13Z" fill="#b0c6d4" fill-rule="evenOdd"/>
    <path d="M173.6,160.26c0,-0.06 -0.1,-0.14 -0.14,-0.21 -1.23,-1.81 -4.81,-7.58 -5.9,-9.21 -0.28,0.56 -0.57,1.1 -0.86,1.64 -6.49,12.3 -12.7,20.41 -21.81,28.25l-12.2,0.22a61.43,61.43 0,0 1,-20.27 -27c-0.54,-1.5 -1,-3 -1.44,-4.6 0,0 0,0 0,0s0,0 0,0h0c-4.6,8.4 -2.34,4.94 -6.31,10.09v0.09c0.28,6.63 11.18,89.37 17.4,113.14 -0.15,0.83 -0.29,1.64 -0.43,2.43a139,139 0,0 0,32.44 0.06c-0.39,-3.16 -0.83,-6.48 -1.29,-9.89 12.54,-37.63 16.08,-53.12 20.83,-105ZM134.25,199.34h0Z" fill="#b3c8d6" fill-rule="evenOdd"/>
    <path d="M127.75,187.33l5.49,-6.38 10.89,-0.23 4.83,6.75 -6.43,10.5s7.72,46.77 11.46,77.13a139.13,139.13 0,0 1,-32.79 -0.1c4.21,-23.27 10.66,-64.95 12.84,-76.85l-6.29,-10.82Z" fill="#427899" fill-rule="evenOdd"/>
    <path d="M105.73,157.93l-63.73,20.4c2,11.74 3.62,34.43 4.81,63.26a137.41,137.41 0,0 0,83.62 34.22c-7.07,-37.47 -19.69,-75.5 -24.7,-117.88Z" fill="#fff" fill-rule="evenOdd"/>
    <path d="M172.8,159.11l61.65,29.48c-4.61,14.24 -8,34.08 -10.59,57.49a137.37,137.37 0,0 1,-81.1 29.85c11.67,-44.46 30,-116.82 30,-116.82Z" fill="#f0f4f7" fill-rule="evenOdd"/>
    <path d="M82.37,165.41 L74.6,180.26l21.17,15.61 -10.67,15.89 31.66,62.68a141.05,141.05 0,0 0,14.2 1.46c-5.67,-34.24 -13.34,-51.85 -25.22,-117.92l-23.36,7.48Z" fill="#f0f4f7" fill-rule="evenOdd"/>
    <path d="M42,178.33c-4.8,7.2 -10.59,21.95 -16.35,39.83a138.5,138.5 0,0 0,28.28 29.28,118.12 118.12,0 0,0 -1.82,-14.72c-2.27,-11.31 -10.11,-54.39 -10.11,-54.39Z" fill="#f0f4f7" fill-rule="evenOdd"/>
    <path d="M190.66,169.09l9.42,22a0.87,0.87 0,0 1,-0.31 1.07l-20.5,13.87a0.86,0.86 0,0 0,-0.25 1.18l9.33,15.18a0.87,0.87 0,0 1,0 0.84s-13.76,25.5 -27.51,50.92a138.66,138.66 0,0 1,-18.12 1.8c10.22,-38.81 27.62,-105.82 29.79,-115.68a0.87,0.87 0,0 1,1.27 -0.57l16.84,9.41Z" fill="#fff" fill-rule="evenOdd"/>
    <path d="M234.45,188.59c5.48,6.93 10.41,18 14.71,31.24a139,139 0,0 1,-34.16 32.74c1,-6.92 2.37,-15 4,-22.52 2.27,-10.62 15.47,-41.46 15.47,-41.46Z" fill="#f0f4f7" fill-rule="evenOdd"/>
</svg>