<?xml version="1.0" encoding="UTF-8" standalone="no"?><!--
  ~ Copyright (C) 2020, Ibnsina Pharma
  ~ All rights reserved.
  --><svg xmlns:android="http://schemas.android.com/apk/res/android" height="1200" width="894.56" xmlns="http://www.w3.org/2000/svg">
    <path d="M878.97,1200L115.37,1200a15.59,15.59 0,0 1,-15.59 -15.59v-99.78a15.59,15.59 0,1 1,31.18 0v84.19L863.38,1168.82L863.38,131h-84.19a15.59,15.59 0,0 1,0 -31.18h99.78a15.59,15.59 0,0 1,15.59 15.59v1069A15.59,15.59 0,0 1,878.97 1200Z" fill="#4e5fab"/>
    <path d="M635.02,279.86L316.67,279.86a15.59,15.59 0,0 1,0 -31.18h318.35a15.59,15.59 0,0 1,0 31.18Z" fill="#4e5fab"/>
    <path d="M635.02,508.53L159.76,508.53a15.59,15.59 0,0 1,0 -31.18h475.26a15.59,15.59 0,0 1,0 31.18Z" fill="#4e5fab"/>
    <path d="M635.02,394.2L159.76,394.2a15.6,15.6 0,0 1,0 -31.19h475.26a15.6,15.6 0,0 1,0 31.19Z" fill="#4e5fab"/>
    <path d="M635.02,737.21L159.76,737.21a15.59,15.59 0,0 1,0 -31.18h475.26a15.59,15.59 0,0 1,0 31.18Z" fill="#4e5fab"/>
    <path d="M635.02,622.87L159.76,622.87a15.59,15.59 0,0 1,0 -31.18h475.26a15.59,15.59 0,0 1,0 31.18Z" fill="#4e5fab"/>
    <path d="M635.02,851.55L159.76,851.55a15.59,15.59 0,0 1,0 -31.18h475.26a15.59,15.59 0,0 1,0 31.18Z" fill="#4e5fab"/>
    <path d="M272.92,288.5L15.59,288.5a15.59,15.59 0,1 1,0 -31.18L257.33,257.32L257.33,15.59a15.59,15.59 0,1 1,31.18 0L288.51,272.91A15.59,15.59 0,0 1,272.92 288.5Z" fill="#4e5fab"/>
    <path d="M779.19,1100.22L15.59,1100.22a15.59,15.59 0,0 1,-15.59 -15.59L0,272.92a15.55,15.55 0,0 1,4.88 -11.33l99.46,-99.47L261.9,4.57a15.54,15.54 0,0 1,11 -4.57h506.27a15.59,15.59 0,0 1,15.59 15.59v1069A15.59,15.59 0,0 1,779.19 1100.22ZM31.18,1069h732.42L763.6,31.18L279.38,31.18l-153,153L31.18,279.38Z" fill="#4e5fab"/>
    <path d="M115.37,1184.41" fill="#4e5fab"/>
    <path d="M115.37,1084.63" fill="#4e5fab"/>
</svg>