<?xml version="1.0" encoding="UTF-8" standalone="no"?><!--
  ~ Copyright (C) 2021, Ibnsina Pharma
  ~ All rights reserved.
  --><svg xmlns:android="http://schemas.android.com/apk/res/android" android:autoMirrored="true" height="24" width="24" xmlns="http://www.w3.org/2000/svg">
    <path android:strokeLineCap="round" android:strokeLineJoin="round" d="M13.715,5.035a4.913,4.913 0,0 1,3.882 3.882M13.715,1.104a8.844,8.844 0,0 1,7.812 7.8m-0.983,7.842v2.948a1.965,1.965 0,0 1,-2.142 1.965,19.448 19.448,0 0,1 -8.481,-3.017 19.163,19.163 0,0 1,-5.9 -5.9,19.448 19.448,0 0,1 -3.017,-8.52A1.965,1.965 0,0 1,2.964 2.087L5.912,2.087a1.965,1.965 0,0 1,1.965 1.69,12.618 12.618,0 0,0 0.688,2.761 1.965,1.965 0,0 1,-0.442 2.073L6.876,9.86a15.723,15.723 0,0 0,5.9 5.9L14.02,14.504a1.965,1.965 0,0 1,2.073 -0.442,12.618 12.618,0 0,0 2.761,0.688A1.965,1.965 0,0 1,20.545 16.749Z" fill="#000000" fill-opacity="0.0" stroke="#7d7d7d" stroke-width="2"/>
</svg>