<?xml version="1.0" encoding="UTF-8" standalone="no"?><!--
  ~ Copyright (C) 2021, Ibnsina Pharma
  ~ All rights reserved.
  --><svg xmlns:android="http://schemas.android.com/apk/res/android" height="30.43" width="33" xmlns="http://www.w3.org/2000/svg">
    <path android:strokeLineCap="round" android:strokeLineJoin="round" d="M42.4,20.52" fill="#000000" fill-opacity="0.0" stroke="#414042" stroke-width="1"/>
    <path android:strokeLineCap="round" android:strokeLineJoin="round" d="M4.53,29.93l23.56,0l2.94,-16.19l-30.53,0l4.03,16.19z" fill="#000000" fill-opacity="0.0" stroke="#4e5fab" stroke-width="1"/>
    <path android:strokeLineCap="round" android:strokeLineJoin="round" d="M8.37,8.2a1.47,1.47 0,1 1,-2 -0.53A1.48,1.48 0,0 1,8.37 8.2Z" fill="#000000" fill-opacity="0.0" stroke="#4e5fab" stroke-width="1"/>
    <path android:strokeLineCap="round" android:strokeLineJoin="round" d="M13.47,5.26a1.48,1.48 0,0 1,-0.54 2,1.47 1.47,0 1,1 -1.47,-2.55A1.48,1.48 0,0 1,13.47 5.26Z" fill="#000000" fill-opacity="0.0" stroke="#4e5fab" stroke-width="1"/>
    <path android:strokeLineCap="round" android:strokeLineJoin="round" d="M16.41,10.36a1.47,1.47 0,1 1,-2.55 1.47,1.47 1.47,0 0,1 2.55,-1.47Z" fill="#000000" fill-opacity="0.0" stroke="#4e5fab" stroke-width="1"/>
    <path android:strokeLineCap="round" android:strokeLineJoin="round" d="M4.75,13.73l-3,-5.13a1.5,1.5 0,0 1,0.55 -2l10.19,-5.88a1.48,1.48 0,0 1,2 0.54l5,8.64" fill="#000000" fill-opacity="0.0" stroke="#4e5fab" stroke-width="1"/>
    <path android:strokeLineCap="round" android:strokeLineJoin="round" d="M30.49,6.02l-6.85,-2.67A1.48,1.48 0,0 1,22.8 1.43h0a1.48,1.48 0,0 1,1.91 -0.83l6.85,2.67a1.48,1.48 0,0 1,0.84 1.91h0A1.48,1.48 0,0 1,30.49 6.02Z" fill="#000000" fill-opacity="0.0" stroke="#4e5fab" stroke-width="1"/>
    <path android:strokeLineCap="round" android:strokeLineJoin="round" d="M29.07,13.73l1.24,-3.18a1.52,1.52 0,0 0,0 -1.13l-0.34,-0.78a1.52,1.52 0,0 1,0 -1.13l0.59,-1.49 -6.86,-2.67 -0.59,1.48a1.44,1.44 0,0 1,-0.78 0.83l-0.78,0.33a1.49,1.49 0,0 0,-0.77 0.81L18,13.73" fill="#000000" fill-opacity="0.0" stroke="#4e5fab" stroke-width="1"/>
    <path android:strokeLineCap="round" android:strokeLineJoin="round" d="M24.93,10.16L23.86,12.9" fill="#000000" fill-opacity="0.0" stroke="#4e5fab" stroke-width="1"/>
    <path android:strokeLineCap="round" android:strokeLineJoin="round" d="M23.02,11L25.76,12.07" fill="#000000" fill-opacity="0.0" stroke="#4e5fab" stroke-width="1"/>
    <path android:strokeLineCap="round" android:strokeLineJoin="round" d="M30.39,9.93L21.07,6.29" fill="#000000" fill-opacity="0.0" stroke="#4e5fab" stroke-width="1"/>
    <path android:strokeLineCap="round" android:strokeLineJoin="round" d="M20.73,20.36l-2.94,0l0,-2.94l-2.94,0l0,2.94l-2.95,0l0,2.94l2.95,0l0,2.95l2.94,0l0,-2.95l2.94,0l0,-2.94z" fill="#000000" fill-opacity="0.0" stroke="#4e5fab" stroke-width="1"/>
    <path android:strokeLineCap="round" android:strokeLineJoin="round" d="M16.32,21.83m-6.62,0a6.62,6.62 0,1 1,13.24 0a6.62,6.62 0,1 1,-13.24 0" fill="#000000" fill-opacity="0.0" stroke="#4e5fab" stroke-width="1"/>
    <path android:strokeLineCap="round" android:strokeLineJoin="round" d="M85.34,-417.82" fill="#000000" fill-opacity="0.0" stroke="#414042" stroke-width="1"/>
</svg>