<?xml version="1.0" encoding="UTF-8" standalone="no"?><svg xmlns:android="http://schemas.android.com/apk/res/android" height="59.321" width="59.321" xmlns="http://www.w3.org/2000/svg">
  <path d="M43.71,53.767L6.244,53.767L6.244,15.611L28.1,15.611L28.1,9.367L6.244,9.367A6.263,6.263 0,0 0,0 15.611L0,53.077a6.263,6.263 0,0 0,6.244 6.244L43.71,59.321a6.263,6.263 0,0 0,6.244 -6.244L49.954,31.222L43.71,31.222Z" fill="#c7c7cc"/>
  <path d="M49.955,0L43.711,0v9.367L34.344,9.367c0.031,0.031 0,6.244 0,6.244h9.367v9.335c0.031,0.031 6.244,0 6.244,0L49.955,15.611h9.367L59.322,9.367L49.955,9.367Z" fill="#c7c7cc"/>
  <path d="M14,21.321h24v5h-24z" fill="#c7c7cc"/>
  <path d="M12.489,31.222v6.244L37.466,37.466L37.466,31.222L12.489,31.222Z" fill="#c7c7cc"/>
  <path d="M14,40.321h24v5h-24z" fill="#c7c7cc"/>
</svg>