<?xml version="1.0" encoding="UTF-8" standalone="no"?><!--
  ~ Copyright (C) 2021, Ibnsina Pharma
  ~ All rights reserved.
  --><svg xmlns:android="http://schemas.android.com/apk/res/android" android:autoMirrored="true" height="35.15" width="35.108" xmlns="http://www.w3.org/2000/svg">
    <path android:strokeLineCap="round" android:strokeLineJoin="round" d="M22.3971,9.7953a6.662,6.662 56,0 1,4.1621 6.1705m-3.1453,-11.4016A11.991,11.991 56,0 1,31.792 16.9739M28.4567,27.1514l-0.7632,3.9265A2.665,2.665 56,0 1,24.3339 33.1367a26.366,26.366 56,0 1,-10.5083 -6.2092A25.98,25.98 56,0 1,7.5077 17.5508a26.367,26.367 56,0 1,-1.8108 -12.1192,2.665 2.665,56 0,1 3.1556,-2.3409l3.9265,0.7632a2.665,2.665 56,0 1,2.1787 2.7584,17.107 17.107,56 0,0 0.2015,3.8532 2.665,2.665 56,0 1,-1.1253 2.6449l-1.9838,1.3381a21.317,21.317 56,0 0,6.3218 9.3725L20.3518,22.4822a2.665,2.665 56,0 1,2.8738 -0.0526,17.106 17.106,56 0,0 3.4972,1.6302A2.665,2.665 56,0 1,28.4567 27.1514Z" fill="#000000" fill-opacity="0.0" stroke="#545454" stroke-width="2"/>
</svg>