<?xml version="1.0" encoding="UTF-8" standalone="no"?><!--
  ~ Copyright (C) 2020, Ibnsina Pharma
  ~ All rights reserved.
  --><svg xmlns:android="http://schemas.android.com/apk/res/android" android:autoMirrored="true" height="24" width="24" xmlns="http://www.w3.org/2000/svg">
    <path d="M17,19.22H5V7h7V5H5C3.9,5 3,5.9 3,7v12c0,1.1 0.9,2 2,2h12c1.1,0 2,-0.9 2,-2v-7h-2V19.22z" fill="#7d7d7d"/>
    <path d="M19,2h-2v3h-3c0.01,0.01 0,2 0,2h3v2.99c0.01,0.01 2,0 2,0V7h3V5h-3V2z" fill="#7d7d7d"/>
    <path d="M7,9h8v2h-8z" fill="#7d7d7d"/>
    <path d="M7,12l0,2l8,0l0,-2l-3,0z" fill="#7d7d7d"/>
    <path d="M7,15h8v2h-8z" fill="#7d7d7d"/>
</svg>