<?xml version="1.0" encoding="UTF-8" standalone="no"?><!--
  ~ Copyright (C) 2021, Ibnsina Pharma
  ~ All rights reserved.
  --><svg xmlns:android="http://schemas.android.com/apk/res/android" android:autoMirrored="true" height="19.92" width="18" xmlns="http://www.w3.org/2000/svg">
    <path d="M15,14.08a2.912,2.912 0,0 0,-1.96 0.77L5.91,10.7A3.274,3.274 0,0 0,6 10a3.274,3.274 0,0 0,-0.09 -0.7l7.05,-4.11A2.993,2.993 0,1 0,12 3a3.274,3.274 0,0 0,0.09 0.7L5.04,7.81a3,3 0,1 0,0 4.38l7.12,4.16a2.821,2.821 0,0 0,-0.08 0.65A2.92,2.92 0,1 0,15 14.08Z" fill="#fff"/>
</svg>