<?xml version="1.0" encoding="UTF-8" standalone="no"?><!--
  ~ Copyright (C) 2021, Ibnsina Pharma
  ~ All rights reserved.
  --><svg xmlns:android="http://schemas.android.com/apk/res/android" height="21.293" width="28.391" xmlns="http://www.w3.org/2000/svg">
    <path d="M28.107,4.595a6.823,6.823 0,0 0,-1.128 -3.007,3.917 3.917,0 0,0 -2.844,-1.28C20.161,0 14.2,0 14.2,0h-0.013s-5.959,0 -9.932,0.308a3.919,3.919 0,0 0,-2.844 1.28A6.835,6.835 0,0 0,0.284 4.595,48.753 48.753,0 0,0 0,9.494v2.3a48.735,48.735 0,0 0,0.284 4.9,6.809 6.809,0 0,0 1.128,3 4.643,4.643 0,0 0,3.13 1.294c2.271,0.232 9.653,0.3 9.653,0.3s5.966,-0.011 9.939,-0.315A3.934,3.934 0,0 0,26.979 19.7a6.821,6.821 0,0 0,1.128 -3,48.759 48.759,0 0,0 0.284,-4.9v-2.3A48.759,48.759 0,0 0,28.107 4.595Z" fill="#e02f2f"/>
    <path d="M10.651,5.323L10.651,15.969l8.872,-5.323Z" fill="#fff"/>
</svg>